<svg version="1.1" id="Layer_1" xmlns="http://www.w3.org/2000/svg" xmlns:xlink="http://www.w3.org/1999/xlink" x="0px" y="0px"
	 width="100%" viewBox="0 0 500 500" enable-background="new 0 0 500 500" xml:space="preserve">
<path fill="#000000" opacity="1.000000" stroke="none" 
	d="

M4.011352,288.990601 
	C4.311970,289.174988 4.612588,289.359344 4.913205,289.543732 
	C4.845130,288.714386 4.777054,287.885010 4.708979,287.055664 
	C4.550879,287.070648 4.392778,287.085632 4.234677,287.100616 
	C4.157154,287.574524 4.079630,288.048431 4.011352,288.990601 
M3.982848,280.050598 
	C3.685005,279.876648 3.387162,279.702667 3.089318,279.528717 
	C3.161243,280.346222 3.233169,281.163727 3.305094,281.981201 
	C3.461680,281.964813 3.618266,281.948395 3.774852,281.931976 
	C3.848734,281.459778 3.922617,280.987549 3.982848,280.050598 
M3.217429,220.169128 
	C3.217429,221.108185 3.217429,222.047226 3.217429,222.986282 
	C3.432336,222.976059 3.647243,222.965836 3.862150,222.955612 
	C3.761406,221.962692 3.660662,220.969788 3.217429,220.169128 
M4.237994,213.034027 
	C4.237994,213.716553 4.237994,214.399063 4.237994,215.081589 
	C4.475667,215.057632 4.713339,215.033691 4.951013,215.009735 
	C4.818901,214.297226 4.686789,213.584717 4.237994,213.034027 
z"/>
<path fill="#707070" opacity="1.000000" stroke="none" 
	d="
M501.000000,279.531342 
	C500.364258,280.685394 499.247070,281.316589 499.162933,282.064117 
	C496.764313,303.370422 491.783936,323.992645 483.161102,343.678802 
	C482.900848,344.272919 482.888550,344.975677 482.125305,345.736359 
	C480.331665,343.101074 478.171967,340.360596 478.162628,337.612854 
	C477.966736,279.920044 477.963257,222.226242 478.147949,164.533371 
	C478.158203,161.323792 480.120148,158.120468 481.173645,154.914230 
	C485.798157,168.753418 490.831696,182.473846 494.896759,196.475449 
	C497.415100,205.149567 498.462433,214.250778 500.585022,223.080139 
	C501.000000,241.687561 501.000000,260.375122 501.000000,279.531342 
z"/>
<path fill="#383838" opacity="1.000000" stroke="none" 
	d="
M246.000000,501.000000 
	C242.307098,501.000000 238.614182,501.000000 234.572586,500.698181 
	C234.149323,496.521851 234.011734,492.647369 234.009964,488.772858 
	C233.993378,452.465179 234.000549,416.157471 233.999527,379.849792 
	C233.999359,373.854034 234.211960,367.845001 233.848938,361.871094 
	C233.746902,360.191711 231.945892,358.615631 230.942703,356.616699 
	C237.345276,339.220947 243.729294,322.200623 250.113327,305.180298 
	C250.720932,305.225983 251.328537,305.271698 251.936157,305.317383 
	C252.694794,307.195129 253.453445,309.072876 253.944092,311.237000 
	C253.117538,314.395203 252.076614,317.266174 252.071686,320.138947 
	C251.975494,376.120789 252.022049,432.102875 251.956802,488.084778 
	C251.951782,492.390228 251.333313,496.694946 251.000000,501.000000 
	C250.250000,501.000000 249.500000,501.000000 248.189117,500.882629 
	C247.085495,500.843475 246.542755,500.921753 246.000000,501.000000 
z"/>
<path fill="#3C3C3C" opacity="1.000000" stroke="none" 
	d="
M251.444153,501.000000 
	C251.333313,496.694946 251.951782,492.390228 251.956802,488.084778 
	C252.022049,432.102875 251.975494,376.120789 252.071686,320.138947 
	C252.076614,317.266174 253.117538,314.395203 254.181091,311.500488 
	C260.557617,327.293976 266.429138,343.110291 271.986084,359.173035 
	C271.114471,361.923462 270.077484,364.426453 270.071838,366.931763 
	C269.972992,410.715179 270.000458,454.498901 270.000458,498.087585 
	C266.660187,498.971924 262.830078,499.985931 259.000000,501.000000 
	C256.629456,501.000000 254.258881,501.000000 251.444153,501.000000 
z"/>
<path fill="#333334" opacity="1.000000" stroke="none" 
	d="
M230.924149,356.992157 
	C231.945892,358.615631 233.746902,360.191711 233.848938,361.871094 
	C234.211960,367.845001 233.999359,373.854034 233.999527,379.849792 
	C234.000549,416.157471 233.993378,452.465179 234.009964,488.772858 
	C234.011734,492.647369 234.149323,496.521851 234.111938,500.698181 
	C231.629440,501.000000 229.258896,501.000000 226.476410,500.789032 
	C225.876770,500.390289 225.689056,500.202515 225.501343,500.014771 
	C225.334229,500.343170 225.167114,500.671600 225.000000,501.000000 
	C224.555557,501.000000 224.111099,501.000000 223.363586,500.792053 
	C222.874054,500.399628 222.687576,500.215149 222.501099,500.030670 
	C222.334061,500.353790 222.167038,500.676880 222.000000,501.000000 
	C221.555557,501.000000 221.111099,501.000000 220.333328,501.000000 
	C218.393234,500.304047 216.830460,499.466522 215.168015,498.949646 
	C213.293472,498.366821 211.329224,498.072571 209.405884,497.181274 
	C210.264664,495.030212 211.856461,493.355713 211.867874,491.670502 
	C212.030853,467.599701 212.032211,443.527130 211.856323,419.456512 
	C211.845413,417.964172 210.036102,416.484985 209.070724,414.630402 
	C211.905869,406.676056 214.681656,399.071014 217.573868,391.510529 
	C221.981644,379.988220 226.470001,368.496735 230.924149,356.992157 
z"/>
<path fill="#404040" opacity="1.000000" stroke="none" 
	d="
M259.468262,501.000000 
	C262.830078,499.985931 266.660187,498.971924 270.000458,498.087585 
	C270.000458,454.498901 269.972992,410.715179 270.071838,366.931763 
	C270.077484,364.426453 271.114471,361.923462 272.210938,359.441223 
	C278.639740,375.273621 284.529114,391.084137 290.073334,407.064575 
	C288.819824,410.474457 287.160889,413.706177 287.124847,416.955872 
	C286.888184,438.282715 287.056854,459.613708 286.965332,480.942780 
	C286.940216,486.798035 286.737976,492.605286 290.005341,497.831879 
	C287.353668,498.632599 284.701996,499.433289 282.025146,500.617004 
	C281.250000,501.000000 280.500000,501.000000 279.446014,500.766174 
	C278.924225,500.312256 278.706451,500.092194 278.488647,499.872131 
	C278.325775,500.248077 278.162872,500.624054 278.000000,501.000000 
	C271.978851,501.000000 265.957703,501.000000 259.468262,501.000000 
z"/>
<path fill="#414141" opacity="1.000000" stroke="none" 
	d="
M278.625000,1.000000 
	C280.998291,1.993228 282.918427,3.226555 285.017609,3.909824 
	C286.980682,4.548783 289.133636,4.604382 291.582397,5.420303 
	C291.641205,10.398210 291.052368,14.871953 291.042542,19.346968 
	C290.965515,54.341358 291.038422,89.336143 290.908569,124.330215 
	C290.900269,126.567322 289.587158,128.799576 288.640411,130.776031 
	C283.231720,117.688484 278.063629,104.859032 273.253540,91.895889 
	C274.407349,89.417725 275.881866,87.077171 275.895416,84.728195 
	C276.056396,56.819523 275.999603,28.909597 276.000000,1.000000 
	C276.750000,1.000000 277.500000,1.000000 278.625000,1.000000 
z"/>
<path fill="#3E3D3D" opacity="1.000000" stroke="none" 
	d="
M275.531616,1.000000 
	C275.999603,28.909597 276.056396,56.819523 275.895416,84.728195 
	C275.881866,87.077171 274.407349,89.417725 273.012207,91.634369 
	C266.831116,77.708084 261.249451,63.909615 256.014038,49.907425 
	C256.906281,47.716690 257.894379,45.736320 257.924316,43.741566 
	C258.083801,33.115700 258.170654,22.482193 257.913940,11.860239 
	C257.826111,8.226863 256.668732,4.619337 256.000000,1.000000 
	C262.354401,1.000000 268.708801,1.000000 275.531616,1.000000 
z"/>
<path fill="#38393A" opacity="1.000000" stroke="none" 
	d="
M255.531342,1.000000 
	C256.668732,4.619337 257.826111,8.226863 257.913940,11.860239 
	C258.170654,22.482193 258.083801,33.115700 257.924316,43.741566 
	C257.894379,45.736320 256.906281,47.716690 255.790802,49.647167 
	C253.920776,46.724339 252.620300,43.858044 250.989471,40.263672 
	C247.564301,48.377083 244.638824,55.306808 241.362518,61.997635 
	C240.342575,59.638824 239.110748,57.523365 239.093918,55.398296 
	C238.966400,39.285355 238.967117,23.168909 239.205444,7.057659 
	C239.253342,3.819052 238.133575,2.946973 235.257065,2.998427 
	C231.438293,3.066737 227.616440,2.962027 223.795898,2.931659 
	C223.899750,2.504716 224.003616,2.077773 224.053741,1.325415 
	C234.354233,1.000000 244.708450,1.000000 255.531342,1.000000 
z"/>
<path fill="#040404" opacity="1.000000" stroke="none" 
	d="
M1.000000,253.468536 
	C4.447273,259.760193 3.655133,266.653198 1.322381,273.792175 
	C1.000000,267.312347 1.000000,260.624725 1.000000,253.468536 
z"/>
<path fill="#040404" opacity="1.000000" stroke="none" 
	d="
M1.000000,236.463181 
	C4.379036,240.017868 3.472955,244.229843 1.282795,248.743576 
	C1.000000,244.975449 1.000000,240.950912 1.000000,236.463181 
z"/>
<path fill="#3C3C3C" opacity="1.000000" stroke="none" 
	d="
M246.333328,501.000000 
	C246.542755,500.921753 247.085495,500.843475 247.814117,500.882629 
	C247.555557,501.000000 247.111099,501.000000 246.333328,501.000000 
z"/>
<path fill="#000000" opacity="1.000000" stroke="none" 
	d="
M278.250000,501.000000 
	C278.162872,500.624054 278.325775,500.248077 278.488647,499.872131 
	C278.706451,500.092194 278.924225,500.312256 279.071014,500.766174 
	C279.000000,501.000000 278.500000,501.000000 278.250000,501.000000 
z"/>
<path fill="#000000" opacity="1.000000" stroke="none" 
	d="
M225.250000,501.000000 
	C225.167114,500.671600 225.334229,500.343170 225.501343,500.014771 
	C225.689056,500.202515 225.876770,500.390289 226.032242,500.789032 
	C226.000000,501.000000 225.500000,501.000000 225.250000,501.000000 
z"/>
<path fill="#000000" opacity="1.000000" stroke="none" 
	d="
M222.250000,501.000000 
	C222.167038,500.676880 222.334061,500.353790 222.501099,500.030670 
	C222.687576,500.215149 222.874054,500.399628 223.030258,500.792053 
	C223.000000,501.000000 222.500000,501.000000 222.250000,501.000000 
z"/>
<path fill="#272625" opacity="1.000000" stroke="none" 
	d="
M169.765259,487.062744 
	C164.575378,485.247498 159.385498,483.432251 154.327682,481.261108 
	C155.067108,479.604156 156.089111,478.335571 156.193817,476.995331 
	C156.399338,474.364716 156.014099,471.694275 156.012756,469.040253 
	C155.994659,433.313080 155.919998,397.585480 156.089630,361.859131 
	C156.114395,356.645142 157.332962,351.436798 158.251114,345.979370 
	C159.724838,343.137787 158.737244,341.885406 155.956024,341.221802 
	C155.584183,337.464966 155.041641,334.160797 155.038605,330.856140 
	C154.986191,273.596008 155.000107,216.335831 155.458740,158.983978 
	C160.944717,158.956207 165.971466,159.020126 170.978271,159.504150 
	C170.663330,161.894775 170.119431,163.864334 170.111877,165.835953 
	C170.038025,185.119232 169.976730,204.403641 170.171814,223.685089 
	C170.189804,225.464249 172.002594,227.225235 172.964600,229.363251 
	C168.881516,239.184265 164.815811,248.636719 160.488281,258.697876 
	C164.462982,258.921326 167.229416,259.076874 169.997650,259.637604 
	C170.333420,262.697784 170.667419,265.352722 170.568665,268.120026 
	C167.536957,268.363251 164.938019,268.494141 161.803253,268.651978 
	C162.432678,271.944641 162.911469,274.685425 163.484009,277.406494 
	C167.729935,297.585876 171.994522,317.761322 175.874527,338.012573 
	C171.139328,339.847168 172.053665,343.770538 172.048172,347.085175 
	C171.978012,389.332367 171.942505,431.579865 172.088165,473.826630 
	C172.103317,478.220490 173.334122,482.610168 173.578369,486.995850 
	C172.025650,487.014191 170.895462,487.038483 169.765259,487.062744 
z"/>
<path fill="#070707" opacity="1.000000" stroke="none" 
	d="
M30.794344,369.077179 
	C28.572390,364.641418 26.350435,360.205627 24.344828,355.477661 
	C25.119854,354.036957 26.190117,352.873077 26.156033,351.742462 
	C25.890564,342.936432 25.094925,334.138153 25.056877,325.334930 
	C24.915031,292.514771 24.999994,259.693665 25.000311,226.872894 
	C25.000509,206.214142 24.985746,185.555359 25.021027,164.896667 
	C25.025730,162.141357 24.439795,158.984741 28.641451,158.148331 
	C33.667130,158.558258 38.334213,158.806824 42.980301,159.477081 
	C42.639332,164.700974 42.047794,169.502808 42.041252,174.305450 
	C41.973270,224.240250 41.940548,274.175354 42.086784,324.109802 
	C42.102077,329.331635 43.330074,334.549896 43.543541,339.855408 
	C40.461582,339.956177 37.817043,339.823151 35.210266,340.077423 
	C34.434620,340.153076 33.764996,341.315735 33.046791,341.980316 
	C33.744141,342.666656 34.380650,343.857025 35.149639,343.949829 
	C38.074326,344.302856 41.041809,344.301392 44.037533,344.795715 
	C44.254559,346.462646 44.566696,347.764923 44.578331,349.069916 
	C44.681026,360.589020 44.830257,372.109955 44.672832,383.626343 
	C44.652451,385.117157 42.965744,386.585175 42.050911,388.063751 
	C42.050915,388.063751 41.967537,388.007141 41.932137,387.650909 
	C41.285389,386.569733 40.674038,385.844757 40.062691,385.119781 
	C40.062695,385.119781 39.959797,385.022095 39.925758,384.649963 
	C39.285297,383.563965 38.678879,382.850128 38.072464,382.136292 
	C38.072464,382.136292 37.929329,381.966614 37.864513,381.631958 
	C37.542850,380.895660 37.286003,380.494080 37.029156,380.092468 
	C37.029152,380.092468 36.967403,380.017761 36.881786,379.702759 
	C36.448647,378.962891 36.101124,378.538025 35.753605,378.113159 
	C35.529224,377.926483 35.319260,377.724823 34.972446,377.057678 
	C34.565880,376.128906 34.310581,375.650574 34.055275,375.172241 
	C34.055271,375.172241 33.958721,375.032288 33.894371,374.701843 
	C33.562859,373.944305 33.295696,373.517242 33.028542,373.090149 
	C33.028545,373.090149 32.968964,373.016388 32.901264,372.712372 
	C32.561790,371.962708 32.290020,371.517029 32.018246,371.071381 
	C32.018246,371.071381 31.972431,371.015564 31.886360,370.710876 
	C31.464975,369.963196 31.129660,369.520172 30.794344,369.077179 
z"/>
<path fill="#2D2D2D" opacity="1.000000" stroke="none" 
	d="
M197.021729,6.966883 
	C197.021729,6.966883 197.368683,6.927934 197.902786,6.910714 
	C199.311462,6.568882 200.186035,6.244269 201.060608,5.919656 
	C201.060608,5.919655 201.355209,5.892083 201.917160,5.901230 
	C202.754272,5.908657 203.029419,5.906937 203.304565,5.905218 
	C203.304565,5.905218 203.540863,5.886519 203.944031,6.113580 
	C204.745209,7.377354 205.495819,8.417138 205.486816,9.450304 
	C205.395660,19.918438 205.046982,30.385210 205.024933,40.852901 
	C204.957642,72.790535 204.938309,104.728790 205.131302,136.665421 
	C205.146103,139.115570 206.968094,141.554779 207.932343,144.366058 
	C201.122437,161.132812 194.330261,177.532593 187.339905,193.503876 
	C186.756516,191.473480 186.054611,189.874878 186.037979,188.269180 
	C185.937180,178.539124 185.992798,168.807465 186.328888,158.962357 
	C190.237946,156.691818 189.438141,155.126038 185.976059,153.496826 
	C185.637680,148.279053 185.053635,143.482010 185.043015,138.683701 
	C184.964645,103.264183 184.947327,67.844276 185.045349,32.424854 
	C185.065079,25.298367 185.659195,18.173466 185.974915,10.754433 
	C185.947342,10.265723 185.933365,10.070415 185.919373,9.875105 
	C185.919373,9.875105 185.978210,9.901414 186.370514,9.932756 
	C190.182449,8.965026 193.602081,7.965954 197.021729,6.966883 
z"/>
<path fill="#040404" opacity="1.000000" stroke="none" 
	d="
M28.282856,157.986984 
	C24.439795,158.984741 25.025730,162.141357 25.021027,164.896667 
	C24.985746,185.555359 25.000509,206.214142 25.000311,226.872894 
	C24.999994,259.693665 24.915031,292.514771 25.056877,325.334930 
	C25.094925,334.138153 25.890564,342.936432 26.156033,351.742462 
	C26.190117,352.873077 25.119854,354.036957 24.278896,355.116302 
	C23.996616,355.047180 23.944408,354.954285 23.881893,354.675842 
	C23.578220,354.005920 23.337067,353.614410 23.095915,353.222900 
	C23.095919,353.222900 22.942106,352.953705 22.856647,352.597656 
	C22.553160,351.843140 22.335133,351.444702 22.117105,351.046265 
	C22.082550,350.882111 22.047993,350.717926 21.915667,350.036560 
	C21.557682,349.044464 21.297466,348.569611 21.037249,348.094727 
	C21.037247,348.094727 20.968689,348.009827 20.833202,347.806030 
	C20.547588,347.399506 20.385490,347.206848 20.211420,347.024231 
	C20.127113,346.820404 20.042805,346.616608 19.848940,345.885376 
	C19.545269,344.951447 19.351156,344.544922 19.157043,344.138397 
	C15.264971,331.775208 11.371247,319.412506 7.485602,307.047302 
	C7.286214,306.412781 7.039807,305.761353 7.012753,305.109589 
	C6.839592,300.937897 4.219531,297.313629 7.402410,292.397919 
	C9.592630,289.015289 7.735786,283.028809 7.731917,278.206055 
	C7.717649,260.419922 7.704131,242.633759 7.731630,224.847672 
	C7.738319,220.521469 9.318811,215.541107 7.687726,212.011139 
	C4.668365,205.476700 6.525123,199.759766 8.077508,193.788727 
	C9.792229,187.193314 11.777795,180.663544 13.814543,174.158127 
	C15.455436,168.917114 17.348099,163.754929 19.323658,158.064285 
	C19.639072,157.389389 19.723902,157.192398 19.772745,156.979843 
	C20.505461,155.196854 21.238174,153.413864 22.213017,151.139954 
	C22.612005,150.433380 22.733313,150.199280 22.819067,149.946732 
	C23.376411,148.777069 23.933756,147.607422 24.993046,146.359924 
	C25.745571,147.589920 25.864775,148.941193 26.279285,150.194824 
	C26.822989,151.839172 27.599569,153.406540 28.311398,155.378693 
	C28.325491,156.495926 28.304174,157.241455 28.282856,157.986984 
z"/>
<path fill="#232323" opacity="1.000000" stroke="none" 
	d="
M142.770386,25.925955 
	C149.526825,22.982235 156.283279,20.038517 163.794235,17.050200 
	C165.358521,17.028843 166.168274,17.052086 166.934906,17.488766 
	C166.594559,21.202623 166.044861,24.502592 166.038956,27.803530 
	C165.976318,62.882961 165.946976,97.962685 166.045074,133.041962 
	C166.064529,140.000381 166.664017,146.957199 166.534409,154.000809 
	C159.380569,154.029953 152.688354,153.973038 145.947906,153.503540 
	C145.599625,149.789200 145.039505,146.487457 145.039307,143.185684 
	C145.036896,105.260597 145.140991,67.335480 145.078110,29.410601 
	C145.076187,28.247782 143.573425,27.087448 142.770386,25.925955 
z"/>
<path fill="#282828" opacity="1.000000" stroke="none" 
	d="
M166.996033,153.914749 
	C166.664017,146.957199 166.064529,140.000381 166.045074,133.041962 
	C165.946976,97.962685 165.976318,62.882961 166.038956,27.803530 
	C166.044861,24.502592 166.594559,21.202623 166.923935,17.187576 
	C166.941330,16.273119 166.926590,16.073292 166.911835,15.873463 
	C166.911835,15.873463 166.973373,15.901108 167.245392,15.853279 
	C168.032333,15.510595 168.547226,15.215738 169.062134,14.920881 
	C169.062134,14.920880 169.405609,14.913606 169.892212,14.860453 
	C170.939499,14.513238 171.500168,14.219176 172.060852,13.925116 
	C172.060852,13.925117 172.394302,13.911182 172.875793,13.859870 
	C173.918549,13.521721 174.479828,13.234883 175.041092,12.948047 
	C175.041092,12.948047 175.422363,12.939875 175.919815,12.882543 
	C176.962173,12.531401 177.507095,12.237590 178.052002,11.943779 
	C178.052002,11.943779 178.377441,11.921517 178.867645,11.870152 
	C179.935333,11.514611 180.512817,11.210437 181.090302,10.906262 
	C181.090302,10.906262 181.377258,10.892530 181.956436,10.934809 
	C183.686569,11.000669 184.837524,11.024250 185.988480,11.047832 
	C185.659195,18.173466 185.065079,25.298367 185.045349,32.424854 
	C184.947327,67.844276 184.964645,103.264183 185.043015,138.683701 
	C185.053635,143.482010 185.637680,148.279053 185.514130,153.579071 
	C179.046722,154.025879 173.021378,153.970306 166.996033,153.914749 
z"/>
<path fill="#191919" opacity="1.000000" stroke="none" 
	d="
M97.611984,53.881058 
	C102.749428,49.926857 107.797958,45.849087 113.057495,42.064560 
	C116.239616,39.774860 119.748840,37.939766 123.483498,36.295258 
	C123.903625,71.467911 123.917465,106.245857 124.042397,141.023407 
	C124.057846,145.323990 124.664818,149.622452 124.536697,154.013275 
	C116.716873,154.046509 109.358025,153.988358 101.947090,153.547272 
	C101.263245,149.118622 100.109169,145.076111 100.084320,141.026688 
	C99.920372,114.314407 100.058754,87.600258 99.895538,60.887970 
	C99.881241,58.547764 98.407715,56.216480 97.611984,53.881058 
z"/>
<path fill="#1E1E1E" opacity="1.000000" stroke="none" 
	d="
M124.997681,153.921890 
	C124.664818,149.622452 124.057846,145.323990 124.042397,141.023407 
	C123.917465,106.245857 123.903625,71.467911 123.819794,36.195435 
	C129.891235,32.501457 135.998779,29.302137 142.438354,26.014389 
	C143.573425,27.087448 145.076187,28.247782 145.078110,29.410601 
	C145.140991,67.335480 145.036896,105.260597 145.039307,143.185684 
	C145.039505,146.487457 145.599625,149.789200 145.486725,153.592316 
	C138.381744,154.036407 131.689713,153.979156 124.997681,153.921890 
z"/>
<path fill="#161616" opacity="1.000000" stroke="none" 
	d="
M108.827148,457.217499 
	C99.945877,450.019104 91.064613,442.820709 82.274902,435.115967 
	C82.578987,431.115295 82.965103,427.621460 82.975342,424.126495 
	C83.033752,404.204254 82.844360,384.279724 83.093437,364.360443 
	C83.173340,357.970612 84.331200,351.594269 85.457352,345.124512 
	C93.003792,345.175323 100.088745,345.313354 107.218933,345.898132 
	C107.509232,349.827484 107.937286,353.308319 107.970955,356.792938 
	C108.294334,390.267426 108.551216,423.742554 108.827148,457.217499 
z"/>
<path fill="#1E1E1E" opacity="1.000000" stroke="none" 
	d="
M142.994553,477.073456 
	C137.522141,474.177704 132.049713,471.281982 126.195938,468.005859 
	C125.591957,467.244354 125.369339,466.863220 125.104134,466.027100 
	C124.707619,460.432831 124.065247,455.294556 124.047562,450.154144 
	C123.948341,421.321381 123.890106,392.487335 124.090485,363.655640 
	C124.131500,357.754913 125.334656,351.862305 126.458954,345.855621 
	C132.609146,345.896454 138.302505,346.047638 143.944977,346.561127 
	C143.096588,351.790741 141.639832,356.653717 141.608353,361.525970 
	C141.401138,393.599182 141.420578,425.674774 141.568420,457.748657 
	C141.598129,464.192322 142.496613,470.631958 142.994553,477.073456 
z"/>
<path fill="#313131" opacity="1.000000" stroke="none" 
	d="
M207.950089,143.999084 
	C206.968094,141.554779 205.146103,139.115570 205.131302,136.665421 
	C204.938309,104.728790 204.957642,72.790535 205.024933,40.852901 
	C205.046982,30.385210 205.395660,19.918438 205.486816,9.450304 
	C205.495819,8.417138 204.745209,7.377354 204.062332,6.106422 
	C206.323761,5.327396 208.870041,4.782587 211.951721,4.286673 
	C213.326431,4.221089 214.165771,4.106611 215.005096,3.992134 
	C215.005096,3.992134 215.359375,3.930777 215.916321,3.929412 
	C216.724243,3.928301 216.975220,3.928555 217.226196,3.928809 
	C217.226196,3.928809 217.550140,3.939138 218.140289,3.965809 
	C220.149078,4.011120 221.567719,4.029761 222.892334,4.420752 
	C222.211472,7.032427 221.122543,9.269835 221.113968,11.511368 
	C221.005234,39.970303 220.969009,68.430527 221.207031,96.887962 
	C221.227310,99.313248 223.338562,101.721046 224.402802,104.509445 
	C218.868118,117.920975 213.409103,130.960022 207.950089,143.999084 
z"/>
<path fill="#141414" opacity="1.000000" stroke="none" 
	d="
M97.430557,54.007732 
	C98.407715,56.216480 99.881241,58.547764 99.895538,60.887970 
	C100.058754,87.600258 99.920372,114.314407 100.084320,141.026688 
	C100.109169,145.076111 101.263245,149.118622 101.486328,153.640564 
	C94.051567,154.055984 87.025490,153.995163 79.947464,153.551117 
	C79.263588,149.120346 78.123184,145.077530 78.085518,141.024445 
	C77.897354,120.774857 78.016006,100.522552 77.976006,80.271309 
	C77.970978,77.725349 78.672470,74.690300 74.897667,73.901138 
	C80.997063,68.379799 87.096451,62.858456 93.778580,57.045563 
	C94.958023,56.137768 95.554718,55.521523 96.151413,54.905273 
	C96.517319,54.648319 96.883224,54.391365 97.430557,54.007732 
z"/>
<path fill="#212122" opacity="1.000000" stroke="none" 
	d="
M143.311066,477.224731 
	C142.496613,470.631958 141.598129,464.192322 141.568420,457.748657 
	C141.420578,425.674774 141.401138,393.599182 141.608353,361.525970 
	C141.639832,356.653717 143.096588,351.790741 144.402924,346.474670 
	C149.274200,346.092560 153.636673,346.159210 157.999130,346.225861 
	C157.332962,351.436798 156.114395,356.645142 156.089630,361.859131 
	C155.919998,397.585480 155.994659,433.313080 156.012756,469.040253 
	C156.014099,471.694275 156.399338,474.364716 156.193817,476.995331 
	C156.089111,478.335571 155.067108,479.604156 154.097687,480.983826 
	C150.366272,479.833679 146.996918,478.604828 143.311066,477.224731 
z"/>
<path fill="#1A1A1A" opacity="1.000000" stroke="none" 
	d="
M126.002121,345.965942 
	C125.334656,351.862305 124.131500,357.754913 124.090485,363.655640 
	C123.890106,392.487335 123.948341,421.321381 124.047562,450.154144 
	C124.065247,455.294556 124.707619,460.432831 125.029312,466.245483 
	C124.997086,466.918915 124.886444,467.385254 124.886444,467.385254 
	C124.629059,467.172852 124.385216,466.945923 123.813156,466.308655 
	C123.007301,465.651276 122.543205,465.389679 122.079117,465.128082 
	C122.079124,465.128082 121.904472,465.124847 121.618172,464.912415 
	C120.810562,464.530029 120.289253,464.360046 119.767944,464.190063 
	C119.534897,464.026459 119.318695,463.843018 118.763680,463.267914 
	C117.866348,462.651001 117.324684,462.405853 116.783012,462.160736 
	C116.553055,461.996185 116.339508,461.812561 115.820801,461.252869 
	C115.036270,460.651031 114.573326,460.406128 114.110382,460.161224 
	C114.110382,460.161224 113.864456,460.142853 113.560944,459.918213 
	C112.757095,459.537262 112.256760,459.380951 111.756432,459.224670 
	C111.512993,459.063812 111.286453,458.881897 110.757080,458.321716 
	C110.000587,457.712433 109.563812,457.460358 109.127029,457.208282 
	C109.127029,457.208282 108.979218,457.271057 108.903183,457.244263 
	C108.551216,423.742554 108.294334,390.267426 107.970955,356.792938 
	C107.937286,353.308319 107.509232,349.827484 107.638626,345.813782 
	C114.009430,345.510406 120.005775,345.738190 126.002121,345.965942 
z"/>
<path fill="#2D2E2F" opacity="1.000000" stroke="none" 
	d="
M170.001755,487.348389 
	C170.895462,487.038483 172.025650,487.014191 173.873611,487.195190 
	C179.536896,489.013397 184.482407,490.626251 189.779831,492.353882 
	C190.052322,490.573395 190.234070,489.944672 190.232285,489.316467 
	C190.167175,466.375519 190.018585,443.434296 190.131317,420.494324 
	C190.140335,418.658081 191.935684,416.830597 193.090118,415.341431 
	C194.846786,423.191162 196.414261,430.698517 197.987366,438.459900 
	C198.359329,439.146576 198.725616,439.579224 199.091919,440.011871 
	C199.366211,439.665375 199.640488,439.318848 199.966675,438.600159 
	C203.033554,430.485229 206.048523,422.742462 209.063507,414.999664 
	C210.036102,416.484985 211.845413,417.964172 211.856323,419.456512 
	C212.032211,443.527130 212.030853,467.599701 211.867874,491.670502 
	C211.856461,493.355713 210.264664,495.030212 209.113037,496.962494 
	C208.818314,497.215271 208.581818,497.166565 208.119965,497.121216 
	C207.428040,497.073151 207.197968,497.070404 206.967880,497.067688 
	C206.967880,497.067688 206.969101,497.049530 206.727936,496.863190 
	C205.914825,496.472534 205.342896,496.268219 204.770966,496.063904 
	C192.614807,495.897186 181.370193,491.996368 170.001755,487.348389 
z"/>
<path fill="#353534" opacity="1.000000" stroke="none" 
	d="
M224.478455,104.136963 
	C223.338562,101.721046 221.227310,99.313248 221.207031,96.887962 
	C220.969009,68.430527 221.005234,39.970303 221.113968,11.511368 
	C221.122543,9.269835 222.211472,7.032427 222.896973,4.172429 
	C222.995651,3.551756 222.994415,3.056284 222.994415,3.056284 
	C222.994415,3.056284 223.393036,2.978490 223.594467,2.955075 
	C227.616440,2.962027 231.438293,3.066737 235.257065,2.998427 
	C238.133575,2.946973 239.253342,3.819052 239.205444,7.057659 
	C238.967117,23.168909 238.966400,39.285355 239.093918,55.398296 
	C239.110748,57.523365 240.342575,59.638824 241.302612,62.380165 
	C235.888519,76.713387 230.183487,90.425171 224.478455,104.136963 
z"/>
<path fill="#0D0D0D" opacity="1.000000" stroke="none" 
	d="
M42.068329,388.411743 
	C42.965744,386.585175 44.652451,385.117157 44.672832,383.626343 
	C44.830257,372.109955 44.681026,360.589020 44.578331,349.069916 
	C44.566696,347.764923 44.254559,346.462646 44.479324,344.708252 
	C47.280403,344.331207 49.683929,344.405060 52.218204,344.794312 
	C54.898594,345.047913 57.448238,344.986145 60.385315,344.793457 
	C61.857700,344.714081 62.942650,344.765625 64.279297,345.008850 
	C66.363731,345.401825 68.196472,345.603119 69.941696,346.197388 
	C69.236023,350.993439 68.068176,355.399689 68.093948,359.798981 
	C68.211441,379.860168 68.664261,399.919403 68.591721,419.980530 
	C67.646942,420.021912 67.106972,420.062103 66.567017,420.102295 
	C66.120689,419.647186 65.674362,419.192108 64.969048,418.302185 
	C64.484215,417.598938 64.258369,417.330597 64.032532,417.062225 
	C64.032524,417.062225 63.956818,417.041168 63.829018,416.825684 
	C63.519829,416.385712 63.301304,416.206573 63.045650,416.072723 
	C63.045650,416.072723 62.955353,416.045288 62.949379,415.649536 
	C61.943039,414.098358 60.942677,412.942932 59.942314,411.787476 
	C53.990128,404.111572 48.037937,396.435669 42.068329,388.411743 
z"/>
<path fill="#111111" opacity="1.000000" stroke="none" 
	d="
M68.996552,419.979340 
	C68.664261,399.919403 68.211441,379.860168 68.093948,359.798981 
	C68.068176,355.399689 69.236023,350.993439 70.184273,346.129028 
	C70.948303,345.429657 71.382256,345.191681 72.241135,344.919220 
	C76.776001,344.993744 80.885941,345.102753 84.995880,345.211761 
	C84.331200,351.594269 83.173340,357.970612 83.093437,364.360443 
	C82.844360,384.279724 83.033752,404.204254 82.975342,424.126495 
	C82.965103,427.621460 82.578987,431.115295 82.069748,434.846375 
	C81.562103,434.944458 81.356659,434.798096 80.976669,434.150879 
	C76.863281,429.098267 72.929916,424.538788 68.996552,419.979340 
z"/>
<path fill="#0F0F0F" opacity="1.000000" stroke="none" 
	d="
M74.879623,73.939667 
	C78.672470,74.690300 77.970978,77.725349 77.976006,80.271309 
	C78.016006,100.522552 77.897354,120.774857 78.085518,141.024445 
	C78.123184,145.077530 79.263588,149.120346 79.488876,153.647003 
	C74.054916,154.063721 69.027603,154.001358 63.949463,153.555328 
	C63.265820,149.134338 62.146702,145.104187 62.087158,141.058456 
	C61.867859,126.158485 62.058174,111.252884 61.939857,96.350624 
	C61.920830,93.953613 61.114056,91.562851 60.671440,89.169205 
	C64.314545,85.335678 67.957657,81.502144 71.961914,77.239761 
	C72.549049,76.590332 72.739395,76.342392 72.894112,76.067108 
	C72.894112,76.067108 72.934303,75.950424 73.158173,75.809105 
	C73.591614,75.488190 73.768669,75.280846 73.913216,75.045738 
	C73.913216,75.045738 73.944489,74.944458 74.161728,74.807541 
	C74.589577,74.490318 74.767570,74.282127 74.912933,74.046036 
	C74.912933,74.046036 74.861580,73.978195 74.879623,73.939667 
z"/>
<path fill="#0D0D0D" opacity="1.000000" stroke="none" 
	d="
M60.437027,89.351982 
	C61.114056,91.562851 61.920830,93.953613 61.939857,96.350624 
	C62.058174,111.252884 61.867859,126.158485 62.087158,141.058456 
	C62.146702,145.104187 63.265820,149.134338 63.490395,153.656311 
	C57.055820,154.076874 51.029484,154.012772 44.950844,153.564514 
	C44.266457,148.992752 43.220200,144.817474 43.095119,140.614761 
	C42.884487,133.537781 43.371029,126.441803 43.271606,119.357933 
	C43.255787,118.230713 41.711807,117.124947 40.874321,116.009262 
	C47.317085,107.184425 53.759853,98.359596 60.437027,89.351982 
z"/>
<path fill="#070707" opacity="1.000000" stroke="none" 
	d="
M40.809525,116.075684 
	C41.711807,117.124947 43.255787,118.230713 43.271606,119.357933 
	C43.371029,126.441803 42.884487,133.537781 43.095119,140.614761 
	C43.220200,144.817474 44.266457,148.992752 44.492592,153.663040 
	C38.816425,154.432800 33.546207,154.719894 28.275990,155.007004 
	C27.599569,153.406540 26.822989,151.839172 26.279285,150.194824 
	C25.864775,148.941193 25.745571,147.589920 25.201262,146.110992 
	C29.217451,137.485535 33.527374,129.031174 38.141228,120.194717 
	C38.599171,119.684525 38.670998,119.520531 38.660637,119.320656 
	C38.660637,119.320656 38.863892,119.059799 39.152470,118.808327 
	C39.638145,118.331810 39.788448,118.078926 39.891956,117.798203 
	C39.891956,117.798203 40.031548,117.399963 40.231934,117.113251 
	C40.591866,116.691948 40.671047,116.520416 40.669865,116.311935 
	C40.669865,116.311935 40.744728,116.142113 40.809525,116.075684 
z"/>
<path fill="#161616" opacity="1.000000" stroke="none" 
	d="
M68.591728,419.980530 
	C72.929916,424.538788 76.863281,429.098267 80.830704,434.029053 
	C76.168716,429.865479 71.472679,425.330566 66.671822,420.448975 
	C67.106972,420.062103 67.646942,420.021912 68.591728,419.980530 
z"/>
<path fill="#313131" opacity="1.000000" stroke="none" 
	d="
M196.614136,6.925768 
	C193.602081,7.965954 190.182449,8.965026 186.345642,9.953243 
	C189.354492,8.923144 192.780518,7.903899 196.614136,6.925768 
z"/>
<path fill="#161616" opacity="1.000000" stroke="none" 
	d="
M59.938522,412.143860 
	C60.942677,412.942932 61.943039,414.098358 62.939674,415.603394 
	C61.935543,414.802032 60.935135,413.651123 59.938522,412.143860 
z"/>
<path fill="#040404" opacity="1.000000" stroke="none" 
	d="
M4.006729,288.756470 
	C4.079630,288.048431 4.157154,287.574524 4.234677,287.100616 
	C4.392778,287.085632 4.550879,287.070648 4.708979,287.055664 
	C4.777054,287.885010 4.845130,288.714386 4.913206,289.543732 
	C4.612588,289.359344 4.311970,289.174988 4.006729,288.756470 
z"/>
<path fill="#040404" opacity="1.000000" stroke="none" 
	d="
M3.989674,280.282959 
	C3.922617,280.987549 3.848734,281.459778 3.774852,281.931976 
	C3.618266,281.948395 3.461680,281.964813 3.305094,281.981201 
	C3.233169,281.163727 3.161243,280.346222 3.089319,279.528717 
	C3.387162,279.702667 3.685005,279.876648 3.989674,280.282959 
z"/>
<path fill="#040404" opacity="1.000000" stroke="none" 
	d="
M3.388674,220.072998 
	C3.660662,220.969788 3.761406,221.962692 3.862150,222.955612 
	C3.647243,222.965836 3.432336,222.976059 3.217429,222.986282 
	C3.217429,222.047226 3.217429,221.108185 3.388674,220.072998 
z"/>
<path fill="#040404" opacity="1.000000" stroke="none" 
	d="
M4.396336,212.953125 
	C4.686789,213.584717 4.818901,214.297226 4.951013,215.009735 
	C4.713339,215.033691 4.475667,215.057632 4.237994,215.081589 
	C4.237994,214.399063 4.237994,213.716553 4.396336,212.953125 
z"/>
<path fill="#0D0D0D" opacity="1.000000" stroke="none" 
	d="
M38.061783,382.434540 
	C38.678879,382.850128 39.285297,383.563965 39.898361,384.584473 
	C39.287037,384.171722 38.669071,383.452240 38.061783,382.434540 
z"/>
<path fill="#38393A" opacity="1.000000" stroke="none" 
	d="
M222.608612,3.016693 
	C222.994415,3.056284 222.995651,3.551756 222.990997,3.800078 
	C221.567719,4.029761 220.149078,4.011120 218.301666,3.980777 
	C219.322861,3.638417 220.772827,3.307760 222.608612,3.016693 
z"/>
<path fill="#0D0D0D" opacity="1.000000" stroke="none" 
	d="
M40.055992,385.421509 
	C40.674038,385.844757 41.285389,386.569733 41.910889,387.605194 
	C41.299793,387.184906 40.674549,386.454102 40.055992,385.421509 
z"/>
<path fill="#313131" opacity="1.000000" stroke="none" 
	d="
M185.974915,10.754433 
	C184.837524,11.024250 183.686569,11.000669 182.099030,10.952179 
	C182.834091,10.583664 184.005737,10.240057 185.548386,9.885777 
	C185.933365,10.070415 185.947342,10.265723 185.974915,10.754433 
z"/>
<path fill="#191919" opacity="1.000000" stroke="none" 
	d="
M95.803589,54.937904 
	C95.554718,55.521523 94.958023,56.137768 94.036591,56.837406 
	C94.293159,56.270710 94.874458,55.620625 95.803589,54.937904 
z"/>
<path fill="#2D2D2D" opacity="1.000000" stroke="none" 
	d="
M166.561615,15.880219 
	C166.926590,16.073292 166.941330,16.273119 166.967072,16.774136 
	C166.168274,17.052086 165.358521,17.028843 164.143219,16.970417 
	C164.562241,16.585815 165.386810,16.236395 166.561615,15.880219 
z"/>
<path fill="#353534" opacity="1.000000" stroke="none" 
	d="
M214.632782,3.963151 
	C214.165771,4.106611 213.326431,4.221089 212.257385,4.188622 
	C212.771942,4.005843 213.516205,3.970006 214.632782,3.963151 
z"/>
<path fill="#313131" opacity="1.000000" stroke="none" 
	d="
M200.699951,5.907232 
	C200.186035,6.244269 199.311462,6.568882 198.077271,6.905334 
	C198.591537,6.576385 199.465424,6.235597 200.699951,5.907232 
z"/>
<path fill="#161616" opacity="1.000000" stroke="none" 
	d="
M122.244980,465.340088 
	C122.543205,465.389679 123.007301,465.651276 123.651260,466.118225 
	C123.357697,466.066437 122.884277,465.809296 122.244980,465.340088 
z"/>
<path fill="#333334" opacity="1.000000" stroke="none" 
	d="
M204.965408,496.319092 
	C205.342896,496.268219 205.914825,496.472534 206.730743,496.860779 
	C206.369781,496.887878 205.764816,496.731079 204.965408,496.319092 
z"/>
<path fill="#161616" opacity="1.000000" stroke="none" 
	d="
M114.274475,460.369049 
	C114.573326,460.406128 115.036270,460.651031 115.680389,461.094788 
	C115.387230,461.054718 114.912903,460.815796 114.274475,460.369049 
z"/>
<path fill="#161616" opacity="1.000000" stroke="none" 
	d="
M119.984238,464.373199 
	C120.289253,464.360046 120.810562,464.530029 121.556686,464.850372 
	C121.254509,464.852600 120.727524,464.704468 119.984238,464.373199 
z"/>
<path fill="#161616" opacity="1.000000" stroke="none" 
	d="
M125.042511,467.531067 
	C124.886444,467.385254 124.997086,466.918915 125.071899,466.700500 
	C125.369339,466.863220 125.591957,467.244354 125.885399,467.850037 
	C125.678345,467.990234 125.425797,467.857666 125.042511,467.531067 
z"/>
<path fill="#161616" opacity="1.000000" stroke="none" 
	d="
M117.006310,462.358429 
	C117.324684,462.405853 117.866348,462.651001 118.621933,463.109070 
	C118.300430,463.066742 117.765022,462.811432 117.006310,462.358429 
z"/>
<path fill="#161616" opacity="1.000000" stroke="none" 
	d="
M109.260406,457.428375 
	C109.563812,457.460358 110.000587,457.712433 110.606964,458.163452 
	C110.315636,458.124451 109.854706,457.886444 109.260406,457.428375 
z"/>
<path fill="#161616" opacity="1.000000" stroke="none" 
	d="
M111.961456,459.404572 
	C112.256760,459.380951 112.757095,459.537262 113.463531,459.842590 
	C113.168587,459.855927 112.667534,459.720184 111.961456,459.404572 
z"/>
<path fill="#0D0D0D" opacity="1.000000" stroke="none" 
	d="
M37.049805,380.339844 
	C37.286003,380.494080 37.542850,380.895660 37.818794,381.530823 
	C37.582077,381.371979 37.326263,380.979614 37.049805,380.339844 
z"/>
<path fill="#2D2D2D" opacity="1.000000" stroke="none" 
	d="
M174.721100,12.979182 
	C174.479828,13.234883 173.918549,13.521721 173.042160,13.872772 
	C173.285049,13.628098 173.843079,13.319208 174.721100,12.979182 
z"/>
<path fill="#313131" opacity="1.000000" stroke="none" 
	d="
M177.737488,11.979085 
	C177.507095,12.237590 176.962173,12.531401 176.110016,12.895960 
	C176.342834,12.649269 176.882889,12.331830 177.737488,11.979085 
z"/>
<path fill="#313131" opacity="1.000000" stroke="none" 
	d="
M180.757828,10.935173 
	C180.512817,11.210437 179.935333,11.514611 179.030273,11.882612 
	C179.276917,11.618986 179.851135,11.291534 180.757828,10.935173 
z"/>
<path fill="#070707" opacity="1.000000" stroke="none" 
	d="
M22.127748,351.282410 
	C22.335133,351.444702 22.553160,351.843140 22.790382,352.457489 
	C22.585848,352.288452 22.362120,351.903503 22.127748,351.282410 
z"/>
<path fill="#070707" opacity="1.000000" stroke="none" 
	d="
M23.131969,353.453796 
	C23.337067,353.614410 23.578220,354.005920 23.863441,354.625885 
	C23.661015,354.464478 23.414522,354.074585 23.131969,353.453796 
z"/>
<path fill="#2D2D2D" opacity="1.000000" stroke="none" 
	d="
M171.739349,13.958498 
	C171.500168,14.219176 170.939499,14.513238 170.063416,14.874687 
	C170.304626,14.625344 170.861237,14.308614 171.739349,13.958498 
z"/>
<path fill="#070707" opacity="1.000000" stroke="none" 
	d="
M21.097937,348.359802 
	C21.297466,348.569611 21.557682,349.044464 21.868713,349.789307 
	C21.665895,349.581146 21.412260,349.102997 21.097937,348.359802 
z"/>
<path fill="#0D0D0D" opacity="1.000000" stroke="none" 
	d="
M30.902540,369.334076 
	C31.129660,369.520172 31.464975,369.963196 31.876324,370.676178 
	C31.638481,370.494446 31.324610,370.042694 30.902540,369.334076 
z"/>
<path fill="#070707" opacity="1.000000" stroke="none" 
	d="
M19.151714,344.368713 
	C19.351156,344.544922 19.545269,344.951447 19.729595,345.576813 
	C19.528666,345.396759 19.337524,344.997894 19.151714,344.368713 
z"/>
<path fill="#0D0D0D" opacity="1.000000" stroke="none" 
	d="
M32.059677,371.335571 
	C32.290020,371.517029 32.561790,371.962708 32.888519,372.666687 
	C32.662685,372.483276 32.381897,372.041504 32.059677,371.335571 
z"/>
<path fill="#2D2D2D" opacity="1.000000" stroke="none" 
	d="
M168.754852,14.946277 
	C168.547226,15.215738 168.032333,15.510595 167.228699,15.882586 
	C167.442505,15.630371 167.945038,15.301022 168.754852,14.946277 
z"/>
<path fill="#0D0D0D" opacity="1.000000" stroke="none" 
	d="
M33.057037,373.349182 
	C33.295696,373.517242 33.562859,373.944305 33.868652,374.620789 
	C33.633369,374.449585 33.359459,374.028900 33.057037,373.349182 
z"/>
<path fill="#0D0D0D" opacity="1.000000" stroke="none" 
	d="
M34.065178,375.446930 
	C34.310581,375.650574 34.565880,376.128906 34.831753,376.890503 
	C34.586578,376.689728 34.330830,376.205658 34.065178,375.446930 
z"/>
<path fill="#0D0D0D" opacity="1.000000" stroke="none" 
	d="
M35.862495,378.366364 
	C36.101124,378.538025 36.448647,378.962891 36.868393,379.656189 
	C36.617538,379.489624 36.294460,379.054596 35.862495,378.366364 
z"/>
<path fill="#141414" opacity="1.000000" stroke="none" 
	d="
M72.671494,76.173676 
	C72.739395,76.342392 72.549049,76.590332 72.152298,76.976807 
	C72.038742,76.801743 72.194527,76.514252 72.671494,76.173676 
z"/>
<path fill="#070707" opacity="1.000000" stroke="none" 
	d="
M19.661713,157.098694 
	C19.723902,157.192398 19.639072,157.389389 19.418079,157.677704 
	C19.327477,157.567734 19.405071,157.378708 19.661713,157.098694 
z"/>
<path fill="#141414" opacity="1.000000" stroke="none" 
	d="
M73.713272,75.125214 
	C73.768669,75.280846 73.591614,75.488190 73.216064,75.787720 
	C73.107216,75.609230 73.261642,75.374908 73.713272,75.125214 
z"/>
<path fill="#0D0D0D" opacity="1.000000" stroke="none" 
	d="
M40.522461,116.360680 
	C40.671047,116.520416 40.591866,116.691948 40.312828,116.918365 
	C40.165649,116.782768 40.226223,116.582504 40.522461,116.360680 
z"/>
<path fill="#0D0D0D" opacity="1.000000" stroke="none" 
	d="
M39.734398,117.952774 
	C39.788448,118.078926 39.638145,118.331810 39.276207,118.698654 
	C39.212986,118.562111 39.368141,118.317741 39.734398,117.952774 
z"/>
<path fill="#0D0D0D" opacity="1.000000" stroke="none" 
	d="
M38.518623,119.363022 
	C38.670998,119.520531 38.599171,119.684525 38.329224,119.894501 
	C38.176651,119.759476 38.231091,119.569145 38.518623,119.363022 
z"/>
<path fill="#333334" opacity="1.000000" stroke="none" 
	d="
M207.088257,497.249878 
	C207.197968,497.070404 207.428040,497.073151 208.003754,497.088562 
	C207.969131,497.211517 207.588882,497.321777 207.088257,497.249878 
z"/>
<path fill="#353534" opacity="1.000000" stroke="none" 
	d="
M217.059265,3.781576 
	C216.975220,3.928555 216.724243,3.928301 216.095871,3.920467 
	C216.109772,3.820040 216.501053,3.727192 217.059265,3.781576 
z"/>
<path fill="#070707" opacity="1.000000" stroke="none" 
	d="
M22.686008,150.095245 
	C22.733313,150.199280 22.612005,150.433380 22.333546,150.798523 
	C22.268394,150.685577 22.382061,150.450821 22.686008,150.095245 
z"/>
<path fill="#141414" opacity="1.000000" stroke="none" 
	d="
M74.712082,74.125931 
	C74.767570,74.282127 74.589577,74.490318 74.212349,74.791855 
	C74.103699,74.613358 74.258865,74.377602 74.712082,74.125931 
z"/>
<path fill="#070707" opacity="1.000000" stroke="none" 
	d="
M20.290207,347.198975 
	C20.385490,347.206848 20.547588,347.399506 20.804796,347.759460 
	C20.694279,347.772278 20.513317,347.591309 20.290207,347.198975 
z"/>
<path fill="#313131" opacity="1.000000" stroke="none" 
	d="
M203.118225,5.753306 
	C203.029419,5.906937 202.754272,5.908657 202.065094,5.903413 
	C202.078018,5.798099 202.504944,5.699747 203.118225,5.753306 
z"/>
<path fill="#161616" opacity="1.000000" stroke="none" 
	d="
M64.145782,417.300537 
	C64.258369,417.330597 64.484215,417.598938 64.825745,418.110565 
	C64.713951,418.082153 64.486488,417.810486 64.145782,417.300537 
z"/>
<path fill="#161616" opacity="1.000000" stroke="none" 
	d="
M63.138649,416.270752 
	C63.301304,416.206573 63.519829,416.385712 63.819099,416.787659 
	C63.644943,416.880585 63.409832,416.715149 63.138649,416.270752 
z"/>
<path fill="#6C6B6B" opacity="1.000000" stroke="none" 
	d="
M481.119324,154.593781 
	C480.120148,158.120468 478.158203,161.323792 478.147949,164.533371 
	C477.963257,222.226242 477.966736,279.920044 478.162628,337.612854 
	C478.171967,340.360596 480.331665,343.101074 481.843719,345.964539 
	C474.997498,360.007507 467.797516,373.930878 460.285461,387.598938 
	C459.978790,375.650726 459.984161,363.957855 460.424561,352.199829 
	C462.174103,352.101410 463.547150,352.291595 464.785583,351.967468 
	C465.871552,351.683289 466.806488,350.821991 467.808167,350.215607 
	C466.798096,349.451508 465.877411,348.241608 464.759125,348.017334 
	C462.529175,347.570160 460.190704,347.664185 457.914673,347.032745 
	C457.952362,284.049194 457.972473,221.567581 458.455566,159.020691 
	C462.527374,158.908279 466.153778,159.043869 469.733978,158.699524 
	C470.770935,158.599792 471.675537,157.123779 472.640808,156.278717 
	C471.691589,155.581802 470.785034,154.361832 469.785614,154.280334 
	C465.870331,153.961044 461.925751,154.001083 457.993347,153.444748 
	C457.998077,142.735992 457.863129,132.486862 458.105133,122.246613 
	C458.163452,119.778717 459.470245,117.340309 460.202881,114.888336 
	C466.805237,126.950386 473.407562,139.012436 480.164551,151.640167 
	C480.498474,152.481155 480.698273,152.740616 480.918640,152.984222 
	C480.967407,153.413940 481.016205,153.843643 481.119324,154.593781 
z"/>
<path fill="#494848" opacity="1.000000" stroke="none" 
	d="
M309.001831,8.027145 
	C314.748718,9.646958 320.495605,11.266772 326.571930,13.369030 
	C326.600922,17.153677 326.044250,20.455486 326.039154,23.758150 
	C325.978516,63.018002 325.970276,102.278038 326.043854,141.537857 
	C326.051575,145.670105 326.667725,149.801193 326.541077,154.010620 
	C323.085602,154.140869 320.054596,153.935760 317.109955,154.347885 
	C315.491516,154.574371 312.773743,155.742981 312.702454,156.654907 
	C312.439514,160.019577 315.275116,159.848129 317.640991,159.709885 
	C320.099243,159.566223 322.549194,159.280273 324.981812,159.477829 
	C324.640991,164.351120 324.102264,168.800323 324.044891,173.255722 
	C323.908234,183.865753 324.120209,194.481323 323.892059,205.088226 
	C323.848328,207.120422 322.434113,209.123154 321.432373,210.870422 
	C315.764191,197.080200 310.315857,183.559021 305.247742,169.945038 
	C306.418427,167.538086 307.891998,165.225876 307.898590,162.909485 
	C308.033020,115.587639 307.973938,68.265282 308.043610,20.943165 
	C308.049927,16.637363 308.667877,12.332463 309.001831,8.027145 
z"/>
<path fill="#525252" opacity="1.000000" stroke="none" 
	d="
M349.168396,21.890892 
	C356.682434,25.321981 364.196503,28.753073 371.741089,32.824947 
	C371.181244,36.525314 370.089172,39.583012 370.077667,42.644772 
	C369.953766,75.602951 369.965179,108.561859 370.044098,141.520309 
	C370.053986,145.655365 370.665802,149.788986 370.534515,153.994995 
	C362.713470,154.019699 355.356598,153.972687 347.951538,153.512451 
	C347.604736,150.794022 347.048828,148.489136 347.045654,146.183517 
	C346.991943,107.063667 346.970184,67.943604 347.099030,28.824114 
	C347.106659,26.510792 348.447815,24.201866 349.168396,21.890892 
z"/>
<path fill="#4D4D4D" opacity="1.000000" stroke="none" 
	d="
M348.955444,21.595364 
	C348.447815,24.201866 347.106659,26.510792 347.099030,28.824114 
	C346.970184,67.943604 346.991943,107.063667 347.045654,146.183517 
	C347.048828,148.489136 347.604736,150.794022 347.487701,153.586960 
	C340.381866,154.027390 333.691742,153.980118 327.001587,153.932831 
	C326.667725,149.801193 326.051575,145.670105 326.043854,141.537857 
	C325.970276,102.278038 325.978516,63.018002 326.039154,23.758150 
	C326.044250,20.455486 326.600922,17.153677 326.951477,13.435101 
	C334.248566,15.779097 341.495544,18.539463 348.955444,21.595364 
z"/>
<path fill="#454544" opacity="1.000000" stroke="none" 
	d="
M308.616943,7.944632 
	C308.667877,12.332463 308.049927,16.637363 308.043610,20.943165 
	C307.973938,68.265282 308.033020,115.587639 307.898590,162.909485 
	C307.891998,165.225876 306.418427,167.538086 305.010010,169.684555 
	C299.221741,156.689285 294.051422,143.861694 288.881073,131.034103 
	C289.587158,128.799576 290.900269,126.567322 290.908569,124.330215 
	C291.038422,89.336143 290.965515,54.341358 291.042542,19.346968 
	C291.052368,14.871953 291.641205,10.398210 291.983704,5.504600 
	C297.414398,6.010921 302.823212,6.936519 308.616943,7.944632 
z"/>
<path fill="#575758" opacity="1.000000" stroke="none" 
	d="
M370.998718,153.923264 
	C370.665802,149.788986 370.053986,145.655365 370.044098,141.520309 
	C369.965179,108.561859 369.953766,75.602951 370.077667,42.644772 
	C370.089172,39.583012 371.181244,36.525314 371.948456,33.103611 
	C378.981476,36.880875 385.837677,41.020260 392.836731,45.865322 
	C392.653107,50.027355 392.052856,53.482964 392.043365,56.940193 
	C391.966339,84.979042 391.958099,113.018326 392.044464,141.057114 
	C392.057648,145.344742 392.664062,149.630539 392.531952,153.986664 
	C385.044800,154.011841 378.021759,153.967560 370.998718,153.923264 
z"/>
<path fill="#5C5C5C" opacity="1.000000" stroke="none" 
	d="
M392.996063,153.917191 
	C392.664062,149.630539 392.057648,145.344742 392.044464,141.057114 
	C391.958099,113.018326 391.966339,84.979042 392.043365,56.940193 
	C392.052856,53.482964 392.653107,50.027355 393.041504,46.133293 
	C399.320435,50.544415 405.537476,55.393246 411.894196,61.018509 
	C412.354523,92.501518 412.675140,123.208092 412.531616,153.982330 
	C405.710358,154.005707 399.353210,153.961441 392.996063,153.917191 
z"/>
<path fill="#616161" opacity="1.000000" stroke="none" 
	d="
M412.995758,153.914673 
	C412.675140,123.208092 412.354523,92.501518 412.044037,61.315468 
	C413.273224,61.577866 414.690125,62.119068 415.679260,63.094154 
	C422.098236,69.421883 428.424133,75.843994 434.776459,82.927307 
	C434.515442,86.085579 434.042755,88.551094 434.035461,91.017975 
	C433.973602,111.983368 433.996429,132.949020 433.529388,153.978806 
	C426.375183,154.000244 419.685486,153.957458 412.995758,153.914673 
z"/>
<path fill="#676767" opacity="1.000000" stroke="none" 
	d="
M433.993866,153.914581 
	C433.996429,132.949020 433.973602,111.983368 434.035461,91.017975 
	C434.042755,88.551094 434.515442,86.085579 434.928589,83.220154 
	C443.343506,93.307373 451.602173,103.793861 460.031860,114.584351 
	C459.470245,117.340309 458.163452,119.778717 458.105133,122.246613 
	C457.863129,132.486862 457.998077,142.735992 457.528992,153.508820 
	C449.373474,153.995377 441.683685,153.954987 433.993866,153.914581 
z"/>
<path fill="#707070" opacity="1.000000" stroke="none" 
	d="
M480.903076,152.714996 
	C480.698273,152.740616 480.498474,152.481155 480.186218,151.999084 
	C480.331268,152.010132 480.609375,152.227951 480.903076,152.714996 
z"/>
<path fill="#4D4D4E" opacity="1.000000" stroke="none" 
	d="
M345.032532,482.894409 
	C339.611847,484.903503 334.191162,486.912567 328.533051,488.613556 
	C328.855530,486.879242 329.897339,485.447449 329.880981,484.027863 
	C329.839233,480.408569 329.047638,476.795135 329.042236,473.178619 
	C328.976837,429.463135 329.035370,385.747375 328.901215,342.032227 
	C328.893982,339.677948 327.462036,337.328064 326.703918,334.561157 
	C331.272766,312.478882 335.830963,290.811554 340.550537,268.377258 
	C334.384918,268.377258 329.261078,268.377258 324.115601,267.942017 
	C324.392456,264.751770 324.690979,261.996735 325.449768,259.158691 
	C330.631836,259.075623 335.353699,259.075623 340.736145,259.075623 
	C337.813782,251.406036 335.284485,244.768066 333.024597,237.835205 
	C333.862183,235.004593 334.901733,232.472763 334.922760,229.932495 
	C335.067566,212.443680 334.914886,194.952484 335.045837,177.463455 
	C335.091797,171.325256 335.666168,165.191010 336.444519,158.979370 
	C339.593475,158.955795 342.297241,159.007782 344.980743,159.480682 
	C344.640320,164.703491 344.055695,169.504684 344.042877,174.307404 
	C343.959351,205.573334 344.000000,236.839615 344.000000,268.105774 
	C344.000000,287.912079 343.847443,307.720306 344.091400,327.523590 
	C344.166199,333.596405 345.327393,339.655792 345.602905,345.807861 
	C344.488037,346.737488 343.761353,347.580566 343.034637,348.423645 
	C344.687561,349.069702 346.340515,349.715790 347.940002,350.756409 
	C347.591064,354.285736 347.043732,357.420105 347.038513,360.555389 
	C346.978241,396.820984 346.964050,433.086823 347.051392,469.352295 
	C347.060944,473.310608 347.780823,477.267181 348.171234,481.224579 
	C348.171234,481.224579 348.113831,481.164581 347.845276,481.200287 
	C347.049866,481.522827 346.522980,481.809662 345.996094,482.096497 
	C345.996094,482.096497 345.990662,482.023499 345.846741,482.156555 
	C345.464569,482.474854 345.241150,482.676453 345.032532,482.894409 
z"/>
<path fill="#49494A" opacity="1.000000" stroke="none" 
	d="
M326.693298,334.976135 
	C327.462036,337.328064 328.893982,339.677948 328.901215,342.032227 
	C329.035370,385.747375 328.976837,429.463135 329.042236,473.178619 
	C329.047638,476.795135 329.839233,480.408569 329.880981,484.027863 
	C329.897339,485.447449 328.855530,486.879242 328.156494,488.580505 
	C321.279297,490.872375 314.541199,492.889191 307.548767,494.608521 
	C307.803253,492.730316 308.716400,491.153931 308.733337,489.567963 
	C308.764862,486.616608 308.056580,483.660980 308.038422,480.704803 
	C307.953827,466.932587 308.104370,453.158020 307.891998,439.388580 
	C307.858337,437.204773 306.400452,435.042969 305.617493,432.454926 
	C307.443542,423.429993 309.198547,414.809204 311.072998,406.214508 
	C316.253113,382.462555 321.483063,358.721497 326.693298,334.976135 
z"/>
<path fill="#515151" opacity="1.000000" stroke="none" 
	d="
M348.530670,481.160889 
	C347.780823,477.267181 347.060944,473.310608 347.051392,469.352295 
	C346.964050,433.086823 346.978241,396.820984 347.038513,360.555389 
	C347.043732,357.420105 347.591064,354.285736 348.356689,350.684174 
	C353.223694,350.382538 357.620575,350.547668 362.113464,351.101807 
	C362.806183,354.720703 363.908813,357.948669 363.921509,361.180878 
	C364.049896,393.812408 363.963440,426.444733 364.044037,459.076538 
	C364.054688,463.379395 364.662689,467.680786 365.018066,472.281342 
	C365.068085,472.777771 365.094116,472.975708 365.120178,473.173676 
	C365.120178,473.173676 365.125305,473.104645 364.819092,473.131165 
	C363.675964,473.763519 362.839081,474.369324 362.002197,474.975159 
	C362.002197,474.975159 361.641815,475.070129 361.093506,475.093567 
	C359.381500,475.819641 358.217773,476.522247 357.054016,477.224854 
	C354.332733,478.515625 351.611420,479.806396 348.530670,481.160889 
z"/>
<path fill="#555555" opacity="1.000000" stroke="none" 
	d="
M364.994049,471.982849 
	C364.662689,467.680786 364.054688,463.379395 364.044037,459.076538 
	C363.963440,426.444733 364.049896,393.812408 363.921509,361.180878 
	C363.908813,357.948669 362.806183,354.720703 362.574921,351.019165 
	C369.292572,350.732880 375.644775,350.918213 381.996826,351.565704 
	C381.997894,386.315460 381.973663,420.603119 382.048004,454.890533 
	C382.054016,457.670380 382.734955,460.448792 383.102264,463.227875 
	C383.055756,463.511017 382.917786,463.738708 382.275085,464.124756 
	C381.579163,464.543060 381.296509,464.747589 381.013855,464.952118 
	C381.013855,464.952118 380.645813,465.051727 380.148956,465.140381 
	C379.099487,465.513275 378.546875,465.797485 377.994263,466.081665 
	C377.994263,466.081665 377.997314,466.011658 377.844910,466.163513 
	C377.445312,466.519501 377.216034,466.742035 377.004608,466.983032 
	C376.586090,467.270355 376.167572,467.557678 375.297455,468.086243 
	C374.570679,468.528595 374.295502,468.729736 374.020294,468.930847 
	C374.020294,468.930847 373.643341,469.037842 373.142212,469.132507 
	C372.091278,469.516602 371.541443,469.806030 370.991638,470.095459 
	C370.991638,470.095459 370.989563,470.016724 370.842407,470.164612 
	C370.448669,470.514893 370.219330,470.735321 370.007263,470.973724 
	C370.007263,470.973724 369.663116,471.064392 369.257324,471.201904 
	C368.569916,471.552429 368.288300,471.765411 368.006683,471.978424 
	C368.006683,471.978424 367.643463,472.074554 367.076996,472.057404 
	C366.005035,472.021118 365.499542,472.001984 364.994049,471.982849 
z"/>
<path fill="#5A5A59" opacity="1.000000" stroke="none" 
	d="
M383.445862,463.144226 
	C382.734955,460.448792 382.054016,457.670380 382.048004,454.890533 
	C381.973663,420.603119 381.997894,386.315460 382.415222,351.536743 
	C389.221008,351.414398 395.608276,351.783264 401.947540,352.560455 
	C401.599945,355.776093 401.046906,358.582794 401.040161,361.390808 
	C400.974731,388.552704 400.972839,415.714874 401.049042,442.876709 
	C401.055908,445.326538 401.735840,447.774445 402.103149,450.223267 
	C402.045044,450.512451 401.897705,450.745148 401.162567,451.088745 
	C400.132416,451.593689 399.600891,451.931305 399.069336,452.268921 
	C398.635742,452.795135 398.202118,453.321381 397.314087,454.091003 
	C396.579163,454.532532 396.298645,454.730682 396.018127,454.928802 
	C395.593872,455.236908 395.169586,455.545013 394.201935,456.053741 
	C393.126770,456.590149 392.594940,456.925934 392.063110,457.261719 
	C389.305237,459.194641 386.547363,461.127594 383.445862,463.144226 
z"/>
<path fill="#5E5E5E" opacity="1.000000" stroke="none" 
	d="
M402.402039,450.046265 
	C401.735840,447.774445 401.055908,445.326538 401.049042,442.876709 
	C400.972839,415.714874 400.974731,388.552704 401.040161,361.390808 
	C401.046906,358.582794 401.599945,355.776093 402.371155,352.498810 
	C408.239288,351.874664 413.635773,351.720490 419.065125,352.012329 
	C419.398285,356.264557 419.940338,360.069611 419.958038,363.877136 
	C420.046967,383.022217 419.935211,402.168304 420.048035,421.313141 
	C420.073364,425.614075 420.715576,429.911407 421.073792,434.210388 
	C419.671295,435.733124 418.268829,437.255890 416.365082,439.070068 
	C415.575592,439.575531 415.287354,439.789551 414.999115,440.003540 
	C410.899719,443.292114 406.800354,446.580658 402.402039,450.046265 
z"/>
<path fill="#454544" opacity="1.000000" stroke="none" 
	d="
M305.601013,432.870972 
	C306.400452,435.042969 307.858337,437.204773 307.891998,439.388580 
	C308.104370,453.158020 307.953827,466.932587 308.038422,480.704803 
	C308.056580,483.660980 308.764862,486.616608 308.733337,489.567963 
	C308.716400,491.153931 307.803253,492.730316 307.157043,494.587219 
	C301.574127,495.871796 296.128662,496.880096 290.344238,497.860168 
	C286.737976,492.605286 286.940216,486.798035 286.965332,480.942780 
	C287.056854,459.613708 286.888184,438.282715 287.124847,416.955872 
	C287.160889,413.706177 288.819824,410.474457 290.276642,407.341888 
	C294.848450,417.995483 298.871765,428.541656 303.352692,440.287354 
	C304.376953,436.908661 304.988983,434.889832 305.601013,432.870972 
z"/>
<path fill="#626262" opacity="1.000000" stroke="none" 
	d="
M421.362427,434.035950 
	C420.715576,429.911407 420.073364,425.614075 420.048035,421.313141 
	C419.935211,402.168304 420.046967,383.022217 419.958038,363.877136 
	C419.940338,360.069611 419.398285,356.264557 419.528320,351.952515 
	C426.638062,351.649750 433.317413,351.852844 439.977173,352.477783 
	C439.639221,355.856506 439.066589,358.811615 439.045959,361.770569 
	C438.948944,375.684113 438.878387,389.600708 439.097595,403.511475 
	C439.148285,406.728760 440.374481,409.927521 441.059784,413.134827 
	C441.006500,413.436157 440.857910,413.679260 440.212219,414.151367 
	C439.568756,414.725525 439.327118,415.012451 439.085510,415.299377 
	C439.085510,415.299408 439.075714,415.661285 438.859192,416.030884 
	C438.455780,416.686401 438.268860,416.972290 438.081970,417.258240 
	C435.982666,419.414703 433.883362,421.571167 431.295868,424.051422 
	C430.542389,424.608124 430.277100,424.841034 430.011841,425.073944 
	C430.011841,425.073944 430.005005,425.007294 429.860687,425.217896 
	C429.510895,425.732178 429.305450,426.035858 429.099976,426.339539 
	C426.617004,428.846863 424.134003,431.354187 421.362427,434.035950 
z"/>
<path fill="#676767" opacity="1.000000" stroke="none" 
	d="
M441.359497,412.971680 
	C440.374481,409.927521 439.148285,406.728760 439.097595,403.511475 
	C438.878387,389.600708 438.948944,375.684113 439.045959,361.770569 
	C439.066589,358.811615 439.639221,355.856506 440.440979,352.402832 
	C447.279480,352.025665 453.634521,352.145294 459.989563,352.264954 
	C459.984161,363.957855 459.978790,375.650726 459.984375,387.791077 
	C459.917236,388.559967 459.715179,388.748566 459.088257,389.001648 
	C458.493073,389.893036 458.198761,390.587189 457.904480,391.281342 
	C452.489380,398.457092 447.074280,405.632843 441.359497,412.971680 
z"/>
<path fill="#555555" opacity="1.000000" stroke="none" 
	d="
M357.406189,477.163086 
	C358.217773,476.522247 359.381500,475.819641 360.907593,475.105377 
	C360.099396,475.762939 358.928894,476.432129 357.406189,477.163086 
z"/>
<path fill="#555555" opacity="1.000000" stroke="none" 
	d="
M362.332764,475.000427 
	C362.839081,474.369324 363.675964,473.763519 364.849792,473.147095 
	C364.345612,473.766235 363.504486,474.395966 362.332764,475.000427 
z"/>
<path fill="#5A5A59" opacity="1.000000" stroke="none" 
	d="
M365.018066,472.281311 
	C365.499542,472.001984 366.005035,472.021118 366.889404,472.067108 
	C366.758972,472.418915 366.249725,472.743866 365.430298,473.121246 
	C365.094116,472.975708 365.068085,472.777771 365.018066,472.281311 
z"/>
<path fill="#5A5A59" opacity="1.000000" stroke="none" 
	d="
M378.329956,466.089661 
	C378.546875,465.797485 379.099487,465.513275 379.959595,465.162476 
	C379.733276,465.429779 379.199432,465.763702 378.329956,466.089661 
z"/>
<path fill="#6C6B6B" opacity="1.000000" stroke="none" 
	d="
M458.240967,391.053558 
	C458.198761,390.587189 458.493073,389.893036 458.929962,388.851318 
	C458.907532,389.277740 458.742462,390.051758 458.240967,391.053558 
z"/>
<path fill="#515151" opacity="1.000000" stroke="none" 
	d="
M346.320557,482.096710 
	C346.522980,481.809662 347.049866,481.522827 347.875549,481.171875 
	C347.664551,481.437439 347.154785,481.767181 346.320557,482.096710 
z"/>
<path fill="#5A5A59" opacity="1.000000" stroke="none" 
	d="
M371.327301,470.098114 
	C371.541443,469.806030 372.091278,469.516602 372.948120,469.159119 
	C372.724426,469.427612 372.193695,469.764191 371.327301,470.098114 
z"/>
<path fill="#5E5E5E" opacity="1.000000" stroke="none" 
	d="
M399.393738,452.204651 
	C399.600891,451.931305 400.132416,451.593689 400.973145,451.180054 
	C400.760895,451.449524 400.239502,451.794983 399.393738,452.204651 
z"/>
<path fill="#5E5E5E" opacity="1.000000" stroke="none" 
	d="
M392.386169,457.195709 
	C392.594940,456.925934 393.126770,456.590149 393.966980,456.177521 
	C393.753357,456.443695 393.231293,456.786713 392.386169,457.195709 
z"/>
<path fill="#5A5A59" opacity="1.000000" stroke="none" 
	d="
M368.284912,471.937378 
	C368.288300,471.765411 368.569916,471.552429 369.079407,471.203308 
	C369.059204,471.343536 368.811188,471.619934 368.284912,471.937378 
z"/>
<path fill="#5A5A59" opacity="1.000000" stroke="none" 
	d="
M370.271942,470.935913 
	C370.219330,470.735321 370.448669,470.514893 370.881775,470.163635 
	C370.891083,470.309235 370.713837,470.603699 370.271942,470.935913 
z"/>
<path fill="#515151" opacity="1.000000" stroke="none" 
	d="
M345.282257,482.864868 
	C345.241150,482.676453 345.464569,482.474854 345.883240,482.153931 
	C345.886444,482.290588 345.709229,482.562958 345.282257,482.864868 
z"/>
<path fill="#5A5A59" opacity="1.000000" stroke="none" 
	d="
M374.290344,468.897644 
	C374.295502,468.729736 374.570679,468.528595 375.066895,468.198181 
	C375.045410,468.334076 374.802887,468.599243 374.290344,468.897644 
z"/>
<path fill="#5A5A59" opacity="1.000000" stroke="none" 
	d="
M377.270996,466.944977 
	C377.216034,466.742035 377.445312,466.519501 377.879883,466.165863 
	C377.890656,466.313202 377.714020,466.610046 377.270996,466.944977 
z"/>
<path fill="#5A5A59" opacity="1.000000" stroke="none" 
	d="
M381.289978,464.919006 
	C381.296509,464.747589 381.579163,464.543060 382.089539,464.208740 
	C382.066864,464.347900 381.816498,464.616913 381.289978,464.919006 
z"/>
<path fill="#5E5E5E" opacity="1.000000" stroke="none" 
	d="
M396.293701,454.908508 
	C396.298645,454.730682 396.579163,454.532532 397.084900,454.208679 
	C397.063171,454.351379 396.816223,454.619812 396.293701,454.908508 
z"/>
<path fill="#626262" opacity="1.000000" stroke="none" 
	d="
M415.284790,439.971100 
	C415.287354,439.789551 415.575592,439.575531 416.097595,439.226990 
	C416.077728,439.374542 415.824097,439.656616 415.284790,439.971100 
z"/>
<path fill="#676767" opacity="1.000000" stroke="none" 
	d="
M429.350189,426.186462 
	C429.305450,426.035858 429.510895,425.732178 429.894165,425.218475 
	C429.914795,425.350098 429.757599,425.691711 429.350189,426.186462 
z"/>
<path fill="#676767" opacity="1.000000" stroke="none" 
	d="
M430.297302,425.029144 
	C430.277100,424.841034 430.542389,424.608124 431.022034,424.219635 
	C431.018524,424.370819 430.800629,424.677582 430.297302,425.029144 
z"/>
<path fill="#676767" opacity="1.000000" stroke="none" 
	d="
M438.321411,417.119598 
	C438.268860,416.972290 438.455780,416.686401 438.807678,416.204407 
	C438.835419,416.332520 438.698181,416.656738 438.321411,417.119598 
z"/>
<path fill="#676767" opacity="1.000000" stroke="none" 
	d="
M439.339996,415.156921 
	C439.327118,415.012451 439.568756,414.725525 440.016418,414.246704 
	C440.013123,414.374725 439.803833,414.694611 439.339996,415.156921 
z"/>
<path fill="#486AFA" opacity="1.000000" stroke="none" 
	d="
M305.617493,432.454926 
	C304.988983,434.889832 304.376953,436.908661 303.352692,440.287354 
	C298.871765,428.541656 294.848450,417.995483 290.621826,407.171997 
	C284.529114,391.084137 278.639740,375.273621 272.525513,359.194855 
	C266.429138,343.110291 260.557617,327.293976 254.449081,311.214111 
	C253.453445,309.072876 252.694794,307.195129 251.936157,305.317383 
	C251.328537,305.271698 250.720932,305.225983 250.113327,305.180298 
	C243.729294,322.200623 237.345276,339.220947 230.942703,356.616699 
	C226.470001,368.496735 221.981644,379.988220 217.573868,391.510529 
	C214.681656,399.071014 211.905869,406.676056 209.070709,414.630402 
	C206.048523,422.742462 203.033554,430.485229 199.707336,438.554840 
	C198.924652,438.656403 198.453186,438.431152 197.981720,438.205933 
	C196.414261,430.698517 194.846786,423.191162 193.122833,414.939575 
	C191.952225,409.325500 190.987457,404.444702 189.915375,399.587585 
	C185.378723,379.033905 180.810165,358.487244 176.253250,337.938019 
	C171.994522,317.761322 167.729935,297.585876 163.484009,277.406494 
	C162.911469,274.685425 162.432678,271.944641 161.803253,268.651978 
	C164.938019,268.494141 167.536957,268.363251 170.975433,268.234924 
	C174.862823,268.619354 178.876953,267.102325 179.552429,272.583862 
	C187.195694,308.696533 194.827469,344.394348 202.450867,380.382080 
	C202.787552,381.097595 203.132645,381.523163 203.477722,381.948730 
	C203.804886,381.319153 204.132065,380.689575 204.653473,379.791504 
	C205.332230,378.050446 205.816727,376.577881 206.533066,374.839844 
	C211.737579,361.456512 216.710251,348.338623 221.871078,334.939545 
	C228.065506,318.778534 234.071777,302.898712 240.320831,286.758423 
	C243.953888,277.844055 247.344147,269.190155 251.162537,259.443390 
	C253.476486,264.845032 255.224457,268.925476 256.990234,273.379883 
	C264.193909,292.545868 271.379791,311.337860 278.674988,330.489929 
	C284.976837,346.938568 290.771057,363.194244 297.473328,379.069122 
	C298.304565,378.983093 299.135773,378.897034 299.966980,378.810974 
	C300.709320,375.236023 301.451691,371.661041 302.399963,367.767273 
	C302.939056,365.692230 303.272278,363.936035 303.732788,361.879395 
	C303.944519,360.718140 304.028931,359.857269 304.324585,358.678894 
	C306.024994,351.553497 307.519928,344.746826 309.002258,337.937408 
	C314.049652,314.751221 319.092621,291.564056 324.137268,268.377258 
	C329.261078,268.377258 334.384918,268.377258 340.550537,268.377258 
	C335.830963,290.811554 331.272766,312.478882 326.703918,334.561157 
	C321.483063,358.721497 316.253113,382.462555 311.072998,406.214508 
	C309.198547,414.809204 307.443542,423.429993 305.617493,432.454926 
M297.909973,380.601166 
	C298.293335,380.956696 298.676666,381.312225 299.060028,381.667786 
	C299.294495,381.029388 299.528961,380.390991 299.488647,378.873901 
	C298.947449,379.255219 298.406281,379.636536 297.909973,380.601166 
M251.077118,304.534180 
	C251.278259,304.545685 251.479416,304.557159 251.680557,304.568634 
	C251.586121,304.460236 251.491684,304.351868 251.077118,304.534180 
z"/>
<path fill="#FB8D41" opacity="1.000000" stroke="none" 
	d="
M332.755188,238.130096 
	C335.284485,244.768066 337.813782,251.406036 340.736145,259.075623 
	C335.353699,259.075623 330.631836,259.075623 325.028748,259.084717 
	C319.425140,259.873444 317.212585,257.701477 315.590088,253.256638 
	C311.741913,242.714645 307.261169,232.403564 303.011169,221.625549 
	C301.066010,216.306900 299.340576,211.271210 297.106262,206.472443 
	C296.441986,205.045624 294.391266,203.442871 292.902588,203.367508 
	C287.288574,203.083344 281.644379,203.395050 275.550446,203.392090 
	C269.392792,203.364807 263.696167,203.429092 257.539001,203.399887 
	C249.711761,203.371994 242.345047,203.437576 234.521484,203.405502 
	C228.703110,203.372650 223.341614,203.437485 217.533478,203.403259 
	C203.628403,203.447525 207.134674,200.744110 201.828705,213.997849 
	C201.709351,214.295990 201.704605,214.640015 201.419189,215.230652 
	C197.741852,224.392960 194.420410,233.340118 190.795929,242.162781 
	C188.423370,247.938065 185.611969,253.533035 182.539062,259.134918 
	C178.052643,259.118195 174.024246,259.175323 169.995865,259.232422 
	C167.229416,259.076874 164.462982,258.921326 160.488281,258.697876 
	C164.815811,248.636719 168.881516,239.184265 173.211807,229.110138 
	C178.163635,216.969742 182.850861,205.451065 187.538086,193.932373 
	C194.330261,177.532593 201.122437,161.132812 207.932343,144.366058 
	C213.409103,130.960022 218.868118,117.920975 224.402786,104.509438 
	C230.183487,90.425171 235.888519,76.713387 241.653442,62.619068 
	C244.638824,55.306808 247.564301,48.377083 250.989471,40.263672 
	C252.620300,43.858044 253.920776,46.724339 255.444519,49.850891 
	C261.249451,63.909615 266.831116,77.708084 272.654175,91.768066 
	C278.063629,104.859032 283.231720,117.688484 288.640442,130.776031 
	C294.051422,143.861694 299.221741,156.689285 304.629791,169.777359 
	C310.315857,183.559021 315.764191,197.080200 321.494629,211.241302 
	C325.436218,220.630859 329.095703,229.380478 332.755188,238.130096 
M242.186768,112.416801 
	C232.842667,135.907272 223.498550,159.397736 213.909256,183.504608 
	C225.107803,183.504608 235.054230,183.504608 245.916809,183.709839 
	C252.598038,183.644836 259.279266,183.579819 266.881653,183.725739 
	C273.618896,183.725739 280.356110,183.725739 287.230042,183.725739 
	C287.230042,182.633972 287.371735,182.104385 287.209564,181.695190 
	C281.169647,166.453232 275.101685,151.222397 268.973969,135.244568 
	C263.262634,120.586708 257.551300,105.928848 251.839951,91.270981 
	C251.393723,91.239082 250.947495,91.207176 250.501266,91.175270 
	C247.875916,98.074936 245.250565,104.974602 242.186768,112.416801 
z"/>
<path fill="#212122" opacity="1.000000" stroke="none" 
	d="
M154.999512,159.075668 
	C155.000107,216.335831 154.986191,273.596008 155.038605,330.856140 
	C155.041641,334.160797 155.584183,337.464966 155.489166,341.292175 
	C149.071503,341.611908 143.040314,341.408813 137.006592,340.722961 
	C137.002716,283.985291 136.980408,227.730362 137.043015,171.475540 
	C137.047607,167.341354 137.664963,163.207870 138.457108,158.979492 
	C144.277695,158.948517 149.638596,159.012100 154.999512,159.075668 
z"/>
<path fill="#29292A" opacity="1.000000" stroke="none" 
	d="
M175.874527,338.012573 
	C180.810165,358.487244 185.378723,379.033905 189.915375,399.587585 
	C190.987457,404.444702 191.952225,409.325500 192.933624,414.597229 
	C191.935684,416.830597 190.140335,418.658081 190.131317,420.494324 
	C190.018585,443.434296 190.167175,466.375519 190.232285,489.316467 
	C190.234070,489.944672 190.052322,490.573395 189.779831,492.353882 
	C184.482407,490.626251 179.536896,489.013397 174.296127,487.201141 
	C173.334122,482.610168 172.103317,478.220490 172.088165,473.826630 
	C171.942505,431.579865 171.978012,389.332367 172.048172,347.085175 
	C172.053665,343.770538 171.139328,339.847168 175.874527,338.012573 
z"/>
<path fill="#282828" opacity="1.000000" stroke="none" 
	d="
M187.339905,193.503876 
	C182.850861,205.451065 178.163635,216.969742 173.229187,228.741547 
	C172.002594,227.225235 170.189804,225.464249 170.171814,223.685089 
	C169.976730,204.403641 170.038025,185.119232 170.111877,165.835953 
	C170.119431,163.864334 170.663330,161.894775 171.437378,159.415100 
	C176.609665,158.962753 181.302917,159.019547 185.996155,159.076340 
	C185.992798,168.807465 185.937180,178.539124 186.037979,188.269180 
	C186.054611,189.874878 186.756516,191.473480 187.339905,193.503876 
z"/>
<path fill="#3E59CE" opacity="1.000000" stroke="none" 
	d="
M186.328888,158.962357 
	C181.302917,159.019547 176.609665,158.962753 171.457321,158.994995 
	C165.971466,159.020126 160.944717,158.956207 155.458740,158.983978 
	C149.638596,159.012100 144.277695,158.948517 137.995987,158.891083 
	C131.049438,158.955963 125.023689,159.014679 118.537079,158.982422 
	C111.717209,158.949631 105.358177,159.007812 98.538498,158.973312 
	C91.385277,158.940353 84.692703,159.000061 77.539726,158.965317 
	C70.720169,158.931381 64.361015,158.991898 57.544228,158.955139 
	C52.391499,158.923706 47.696396,158.989563 43.001297,159.055420 
	C38.334213,158.806824 33.667130,158.558258 28.641451,158.148331 
	C28.304174,157.241455 28.325491,156.495926 28.311398,155.378693 
	C33.546207,154.719894 38.816425,154.432800 44.544899,154.047180 
	C51.029484,154.012772 57.055820,154.076874 63.541222,154.040009 
	C69.027603,154.001358 74.054916,154.063721 79.540817,154.030212 
	C87.025490,153.995163 94.051567,154.055984 101.538422,154.023499 
	C109.358025,153.988358 116.716873,154.046509 124.536697,154.013275 
	C131.689713,153.979156 138.381744,154.036407 145.534958,154.004883 
	C152.688354,153.973038 159.380569,154.029953 166.534424,154.000809 
	C173.021378,153.970306 179.046722,154.025879 185.533966,153.999207 
	C189.438141,155.126038 190.237946,156.691818 186.328888,158.962357 
z"/>
<path fill="#E6813C" opacity="1.000000" stroke="none" 
	d="
M137.009125,341.205719 
	C143.040314,341.408813 149.071503,341.611908 155.569550,341.744629 
	C158.737244,341.885406 159.724838,343.137787 158.251114,345.979370 
	C153.636673,346.159210 149.274200,346.092560 144.453796,346.112366 
	C138.302505,346.047638 132.609146,345.896454 126.458954,345.855621 
	C120.005775,345.738190 114.009430,345.510406 107.593399,345.367004 
	C100.088745,345.313354 93.003792,345.175323 85.457352,345.124512 
	C80.885941,345.102753 76.776001,344.993744 71.893242,344.789948 
	C68.756142,344.735809 66.391876,344.776489 64.027603,344.817169 
	C62.942650,344.765625 61.857700,344.714081 59.994644,344.570862 
	C56.840179,344.479065 54.463821,344.478973 52.087460,344.478882 
	C49.683929,344.405060 47.280403,344.331207 44.435089,344.344879 
	C41.041809,344.301392 38.074326,344.302856 35.149639,343.949829 
	C34.380650,343.857025 33.744141,342.666656 33.046791,341.980316 
	C33.764996,341.315735 34.434620,340.153076 35.210266,340.077423 
	C37.817043,339.823151 40.461582,339.956177 44.000870,339.953918 
	C49.606384,339.952454 54.302700,339.937988 59.453354,340.046082 
	C65.942619,340.215820 71.977554,340.263031 78.442032,340.451050 
	C85.577698,340.635834 92.283821,340.679840 99.452026,340.809845 
	C106.274910,340.894318 112.635712,340.892731 119.453400,341.001434 
	C125.609901,341.143036 131.309509,341.174377 137.009125,341.205719 
z"/>
<path fill="#282828" opacity="1.000000" stroke="none" 
	d="
M169.997650,259.637634 
	C174.024246,259.175323 178.052643,259.118195 182.531006,259.548431 
	C181.834305,264.080170 180.687637,268.124573 179.540955,272.168945 
	C178.876953,267.102325 174.862823,268.619354 171.408173,268.122589 
	C170.667419,265.352722 170.333420,262.697784 169.997650,259.637634 
z"/>
<path fill="#0A0A0A" opacity="1.000000" stroke="none" 
	d="
M58.999016,339.923553 
	C54.302700,339.937988 49.606384,339.952454 44.452744,339.868347 
	C43.330074,334.549896 42.102077,329.331635 42.086784,324.109802 
	C41.940548,274.175354 41.973270,224.240250 42.041252,174.305450 
	C42.047794,169.502808 42.639332,164.700974 42.980301,159.477081 
	C47.696396,158.989563 52.391499,158.923706 57.495277,159.369492 
	C57.602638,163.187988 57.042358,166.494553 57.038769,169.801727 
	C56.983204,220.949066 56.938728,272.096680 57.087547,323.243652 
	C57.103733,328.805420 58.332623,334.363678 58.999016,339.923553 
z"/>
<path fill="#404040" opacity="1.000000" stroke="none" 
	d="
M197.987366,438.459930 
	C198.453186,438.431152 198.924652,438.656403 199.655441,438.927002 
	C199.640488,439.318848 199.366211,439.665375 199.091919,440.011871 
	C198.725616,439.579224 198.359329,439.146576 197.987366,438.459930 
z"/>
<path fill="#353534" opacity="1.000000" stroke="none" 
	d="
M52.218204,344.794281 
	C54.463821,344.478973 56.840179,344.479065 59.607212,344.701782 
	C57.448238,344.986145 54.898594,345.047913 52.218204,344.794281 
z"/>
<path fill="#353534" opacity="1.000000" stroke="none" 
	d="
M64.279297,345.008850 
	C66.391876,344.776489 68.756142,344.735809 71.468307,344.824432 
	C71.382256,345.191681 70.948303,345.429657 70.271790,345.736023 
	C68.196472,345.603119 66.363731,345.401825 64.279297,345.008850 
z"/>
<path fill="#676767" opacity="1.000000" stroke="none" 
	d="
M457.992584,159.085953 
	C457.972473,221.567581 457.952362,284.049194 457.454742,347.070221 
	C451.318024,347.424561 445.658783,347.239502 439.997314,346.612976 
	C439.663361,335.544098 439.145966,324.918457 439.042816,314.288818 
	C438.881348,297.647461 438.897552,281.002625 439.021240,264.360596 
	C439.282043,229.267914 439.661316,194.176132 440.456573,159.017975 
	C446.611633,158.996628 452.302124,159.041290 457.992584,159.085953 
z"/>
<path fill="#4C67DC" opacity="1.000000" stroke="none" 
	d="
M458.455566,159.020691 
	C452.302124,159.041290 446.611633,158.996628 439.992340,158.953827 
	C432.373627,158.998215 425.683746,159.040726 418.529724,159.017471 
	C411.708649,158.994080 405.351776,159.036469 398.530853,159.011139 
	C391.710999,158.985992 385.355133,159.028580 378.535217,159.001373 
	C372.047791,158.976074 366.024384,159.020569 359.539307,158.993744 
	C354.385406,158.968216 349.693176,159.013992 345.000977,159.059784 
	C342.297241,159.007782 339.593475,158.955795 335.991547,158.902496 
	C331.729828,158.952988 328.366302,159.004776 325.002777,159.056549 
	C322.549194,159.280273 320.099243,159.566223 317.640991,159.709885 
	C315.275116,159.848129 312.439514,160.019577 312.702454,156.654907 
	C312.773743,155.742981 315.491516,154.574371 317.109955,154.347885 
	C320.054596,153.935760 323.085602,154.140869 326.541077,154.010620 
	C333.691742,153.980118 340.381866,154.027390 347.535889,154.000183 
	C355.356598,153.972687 362.713470,154.019699 370.534546,153.994995 
	C378.021759,153.967560 385.044800,154.011841 392.531952,153.986664 
	C399.353210,153.961441 405.710358,154.005707 412.531616,153.982330 
	C419.685486,153.957458 426.375183,154.000244 433.529388,153.978821 
	C441.683685,153.954987 449.373474,153.995377 457.527649,153.971695 
	C461.925751,154.001083 465.870331,153.961044 469.785614,154.280334 
	C470.785034,154.361832 471.691589,155.581802 472.640808,156.278717 
	C471.675537,157.123779 470.770935,158.599792 469.733978,158.699524 
	C466.153778,159.043869 462.527374,158.908279 458.455566,159.020691 
z"/>
<path fill="#ED8944" opacity="1.000000" stroke="none" 
	d="
M439.999573,347.054443 
	C445.658783,347.239502 451.318024,347.424561 457.437134,347.572144 
	C460.190704,347.664185 462.529175,347.570160 464.759125,348.017334 
	C465.877411,348.241608 466.798096,349.451508 467.808167,350.215607 
	C466.806488,350.821991 465.871552,351.683289 464.785583,351.967468 
	C463.547150,352.291595 462.174103,352.101410 460.424561,352.199829 
	C453.634521,352.145294 447.279480,352.025665 440.460632,351.980988 
	C433.317413,351.852844 426.638062,351.649750 419.495453,351.506470 
	C413.635773,351.720490 408.239288,351.874664 402.419189,352.090485 
	C395.608276,351.783264 389.221008,351.414398 382.415344,351.074524 
	C375.644775,350.918213 369.292572,350.732880 362.478943,350.630188 
	C357.620575,350.547668 353.223694,350.382538 348.410126,350.289612 
	C346.340515,349.715790 344.687561,349.069702 343.034637,348.423645 
	C343.761353,347.580566 344.488037,346.737488 346.064514,345.882507 
	C351.607635,345.857758 356.300964,345.844910 361.455658,345.921875 
	C367.947449,346.043274 373.977905,346.074890 380.465973,346.211945 
	C386.568176,346.409088 392.212738,346.500763 398.265350,346.677399 
	C405.779419,346.774078 412.885498,346.785828 420.454590,346.877472 
	C427.278259,346.989746 433.638916,347.022095 439.999573,347.054443 
z"/>
<path fill="#4D4D4D" opacity="1.000000" stroke="none" 
	d="
M324.981812,159.477829 
	C328.366302,159.004776 331.729828,158.952988 335.546326,158.978088 
	C335.666168,165.191010 335.091797,171.325256 335.045837,177.463455 
	C334.914886,194.952484 335.067566,212.443680 334.922760,229.932495 
	C334.901733,232.472763 333.862183,235.004593 333.024597,237.835205 
	C329.095703,229.380478 325.436218,220.630859 321.714447,211.510361 
	C322.434113,209.123154 323.848328,207.120422 323.892059,205.088226 
	C324.120209,194.481323 323.908234,183.865753 324.044891,173.255722 
	C324.102264,168.800323 324.640991,164.351120 324.981812,159.477829 
z"/>
<path fill="#505050" opacity="1.000000" stroke="none" 
	d="
M360.994324,345.832031 
	C356.300964,345.844910 351.607635,345.857758 346.452698,345.795990 
	C345.327393,339.655792 344.166199,333.596405 344.091400,327.523590 
	C343.847443,307.720306 344.000000,287.912079 344.000000,268.105774 
	C344.000000,236.839615 343.959351,205.573334 344.042877,174.307404 
	C344.055695,169.504684 344.640320,164.703491 344.980743,159.480682 
	C349.693176,159.013992 354.385406,158.968216 359.538361,159.457489 
	C359.999390,217.801498 359.979370,275.610474 360.042816,333.419312 
	C360.047363,337.557220 360.662903,341.694489 360.994324,345.832031 
z"/>
<path fill="#474647" opacity="1.000000" stroke="none" 
	d="
M303.036133,221.999161 
	C307.261169,232.403564 311.741913,242.714645 315.590088,253.256638 
	C317.212585,257.701477 319.425140,259.873444 324.568512,259.167786 
	C324.690979,261.996735 324.392456,264.751770 324.115601,267.942017 
	C319.092621,291.564056 314.049652,314.751221 309.002258,337.937408 
	C307.519928,344.746826 306.024994,351.553497 303.947174,358.615753 
	C302.245575,356.886444 300.170532,354.907196 300.161530,352.918579 
	C299.974182,311.589081 299.972748,270.258301 300.150604,228.928711 
	C300.160553,226.614777 302.031433,224.308838 303.036133,221.999161 
z"/>
<path fill="#444342" opacity="1.000000" stroke="none" 
	d="
M303.011169,221.625549 
	C302.031433,224.308838 300.160553,226.614777 300.150604,228.928711 
	C299.972748,270.258301 299.974182,311.589081 300.161530,352.918579 
	C300.170532,354.907196 302.245575,356.886444 303.735901,358.933228 
	C304.028931,359.857269 303.944519,360.718140 303.433563,361.936951 
	C302.736023,364.225281 302.465057,366.155670 302.194061,368.086060 
	C301.451691,371.661041 300.709320,375.236023 299.966980,378.810974 
	C299.135773,378.897034 298.304565,378.983093 297.473328,379.069122 
	C290.771057,363.194244 284.976837,346.938568 279.062073,330.403687 
	C280.105194,328.542053 281.448212,327.154755 281.518707,325.705566 
	C281.678741,322.415802 281.033295,319.095825 281.028900,315.787689 
	C280.983765,281.716461 280.926971,247.644791 281.090210,213.574280 
	C281.111847,209.054031 280.476990,205.461304 276.011505,203.483643 
	C281.644379,203.395050 287.288574,203.083344 292.902588,203.367508 
	C294.391266,203.442871 296.441986,205.045624 297.106262,206.472443 
	C299.340576,211.271210 301.066010,216.306900 303.011169,221.625549 
z"/>
<path fill="#303031" opacity="1.000000" stroke="none" 
	d="
M201.646408,214.962631 
	C201.704605,214.640015 201.709351,214.295990 201.828705,213.997849 
	C207.134674,200.744110 203.628403,203.447525 217.591492,203.787598 
	C218.397354,207.398087 218.955643,210.524796 218.960648,213.652405 
	C219.021255,251.513657 218.946259,289.375275 219.115891,327.235840 
	C219.127823,329.901276 220.788788,332.559265 221.682922,335.220734 
	C216.710251,348.338623 211.737579,361.456512 206.187683,374.635742 
	C205.074615,372.867828 204.160889,371.055847 204.076462,369.206024 
	C203.856735,364.392029 204.000168,359.561462 204.000107,354.737488 
	C203.999695,310.490051 204.035477,266.242523 203.899124,221.995514 
	C203.891907,219.648926 202.430725,217.306824 201.646408,214.962631 
z"/>
<path fill="#3E3E3F" opacity="1.000000" stroke="none" 
	d="
M275.550446,203.392090 
	C280.476990,205.461304 281.111847,209.054031 281.090210,213.574280 
	C280.926971,247.644791 280.983765,281.716461 281.028900,315.787689 
	C281.033295,319.095825 281.678741,322.415802 281.518707,325.705566 
	C281.448212,327.154755 280.105194,328.542053 278.952820,330.043640 
	C271.379791,311.337860 264.193909,292.545868 257.363647,273.287781 
	C258.478882,270.834015 259.875885,268.853241 259.897614,266.857513 
	C260.076233,250.437210 260.144806,234.012024 259.908203,217.593201 
	C259.840332,212.885071 258.666382,208.192871 257.999573,203.493378 
	C263.696167,203.429092 269.392792,203.364807 275.550446,203.392090 
z"/>
<path fill="#2D2D2D" opacity="1.000000" stroke="none" 
	d="
M201.419159,215.230652 
	C202.430725,217.306824 203.891907,219.648926 203.899124,221.995514 
	C204.035477,266.242523 203.999695,310.490051 204.000107,354.737488 
	C204.000168,359.561462 203.856735,364.392029 204.076462,369.206024 
	C204.160889,371.055847 205.074615,372.867828 205.955841,374.901184 
	C205.816727,376.577881 205.332230,378.050446 204.153076,379.795990 
	C203.125381,380.076660 202.792328,380.084381 202.459259,380.092133 
	C194.827469,344.394348 187.195694,308.696533 179.552429,272.583862 
	C180.687637,268.124573 181.834305,264.080170 182.989044,259.622284 
	C185.611969,253.533035 188.423370,247.938065 190.795929,242.162781 
	C194.420410,233.340118 197.741852,224.392960 201.419159,215.230652 
z"/>
<path fill="#343434" opacity="1.000000" stroke="none" 
	d="
M221.871094,334.939545 
	C220.788788,332.559265 219.127823,329.901276 219.115891,327.235840 
	C218.946259,289.375275 219.021255,251.513657 218.960648,213.652405 
	C218.955643,210.524796 218.397354,207.398087 218.038116,203.886627 
	C223.341614,203.437485 228.703110,203.372650 234.584045,203.759308 
	C235.735779,207.762756 236.886917,211.310562 236.915359,214.867355 
	C237.087082,236.334106 236.897873,257.804077 237.138184,279.269531 
	C237.167221,281.863312 239.052887,284.436279 240.078049,287.018890 
	C234.071777,302.898712 228.065506,318.778534 221.871094,334.939545 
z"/>
<path fill="#38393A" opacity="1.000000" stroke="none" 
	d="
M240.320831,286.758423 
	C239.052887,284.436279 237.167221,281.863312 237.138184,279.269531 
	C236.897873,257.804077 237.087082,236.334106 236.915359,214.867355 
	C236.886917,211.310562 235.735779,207.762756 235.040909,203.856995 
	C242.345047,203.437576 249.711761,203.371994 257.539001,203.399887 
	C258.666382,208.192871 259.840332,212.885071 259.908203,217.593201 
	C260.144806,234.012024 260.076233,250.437210 259.897614,266.857513 
	C259.875885,268.853241 258.478882,270.834015 257.345825,272.913818 
	C255.224457,268.925476 253.476486,264.845032 251.162537,259.443390 
	C247.344147,269.190155 243.953888,277.844055 240.320831,286.758423 
z"/>
<path fill="#474647" opacity="1.000000" stroke="none" 
	d="
M302.399963,367.767273 
	C302.465057,366.155670 302.736023,364.225281 303.306244,362.237366 
	C303.272278,363.936035 302.939056,365.692230 302.399963,367.767273 
z"/>
<path fill="#474647" opacity="1.000000" stroke="none" 
	d="
M299.763428,379.752594 
	C299.528961,380.390991 299.294495,381.029388 299.060028,381.667786 
	C298.676666,381.312225 298.293335,380.956696 298.362366,380.244843 
	C299.131012,379.843201 299.447235,379.797913 299.763428,379.752594 
z"/>
<path fill="#303031" opacity="1.000000" stroke="none" 
	d="
M202.450867,380.382080 
	C202.792328,380.084381 203.125381,380.076660 203.958832,380.064484 
	C204.132065,380.689575 203.804886,381.319153 203.477722,381.948730 
	C203.132645,381.523163 202.787552,381.097595 202.450867,380.382080 
z"/>
<path fill="#3C3C3C" opacity="1.000000" stroke="none" 
	d="
M251.237183,304.388824 
	C251.491684,304.351868 251.586121,304.460236 251.680557,304.568634 
	C251.479416,304.557159 251.278259,304.545685 251.237183,304.388824 
z"/>
<path fill="#444342" opacity="1.000000" stroke="none" 
	d="
M299.626038,379.313232 
	C299.447235,379.797913 299.131012,379.843201 298.339935,379.953186 
	C298.406281,379.636536 298.947449,379.255219 299.626038,379.313232 
z"/>
<path fill="#3C3B3A" opacity="1.000000" stroke="none" 
	d="
M265.960480,183.514801 
	C259.279266,183.579819 252.598038,183.644836 245.457489,183.170990 
	C244.998856,161.222656 245.067856,139.812622 244.896301,118.404526 
	C244.878799,116.221848 243.416840,114.050735 242.625183,111.874268 
	C245.250565,104.974602 247.875916,98.074936 250.501266,91.175270 
	C250.947495,91.207176 251.393723,91.239082 251.839951,91.270981 
	C257.551300,105.928848 263.262634,120.586708 268.691956,135.818115 
	C267.925568,137.906128 267.062286,139.409058 267.015808,140.936859 
	C266.583862,155.127075 266.292572,169.321548 265.960480,183.514801 
z"/>
<path fill="#383838" opacity="1.000000" stroke="none" 
	d="
M242.405975,112.145531 
	C243.416840,114.050735 244.878799,116.221848 244.896301,118.404526 
	C245.067856,139.812622 244.998856,161.222656 244.999420,183.068375 
	C235.054230,183.504608 225.107803,183.504608 213.909256,183.504608 
	C223.498550,159.397736 232.842667,135.907272 242.405975,112.145531 
z"/>
<path fill="#47413E" opacity="1.000000" stroke="none" 
	d="
M266.421082,183.620270 
	C266.292572,169.321548 266.583862,155.127075 267.015808,140.936859 
	C267.062286,139.409058 267.925568,137.906128 268.723755,136.190857 
	C275.101685,151.222397 281.169647,166.453232 287.209564,181.695190 
	C287.371735,182.104385 287.230042,182.633972 287.230042,183.725739 
	C280.356110,183.725739 273.618896,183.725739 266.421082,183.620270 
z"/>
<path fill="#1D1D1D" opacity="1.000000" stroke="none" 
	d="
M137.006592,340.722961 
	C131.309509,341.174377 125.609901,341.143036 119.404251,340.590820 
	C118.598808,336.768097 118.041862,333.466614 118.038460,330.164520 
	C117.983879,277.265839 117.977707,224.367020 118.043022,171.468338 
	C118.048119,167.336304 118.665253,163.205017 118.997925,159.073395 
	C125.023689,159.014679 131.049438,158.955963 137.536316,158.985657 
	C137.664963,163.207870 137.047607,167.341354 137.043015,171.475540 
	C136.980408,227.730362 137.002716,283.985291 137.006592,340.722961 
z"/>
<path fill="#141414" opacity="1.000000" stroke="none" 
	d="
M98.989952,340.723816 
	C92.283821,340.679840 85.577698,340.635834 78.397949,340.010986 
	C77.616325,335.797882 77.044472,332.165894 77.040131,328.533264 
	C76.980957,278.998474 76.961388,229.463516 77.044746,179.928772 
	C77.056458,172.971924 77.666855,166.016083 78.000130,159.059784 
	C84.692703,159.000061 91.385277,158.940353 98.490013,159.386734 
	C98.601379,163.200653 98.042145,166.508163 98.038498,169.816315 
	C97.982811,220.311462 97.964310,270.806732 98.043503,321.301819 
	C98.053658,327.776276 98.659866,334.249847 98.989952,340.723816 
z"/>
<path fill="#191919" opacity="1.000000" stroke="none" 
	d="
M99.452026,340.809845 
	C98.659866,334.249847 98.053658,327.776276 98.043503,321.301819 
	C97.964310,270.806732 97.982811,220.311462 98.038498,169.816315 
	C98.042145,166.508163 98.601379,163.200653 98.950668,159.479416 
	C105.358177,159.007812 111.717209,158.949631 118.537079,158.982422 
	C118.665253,163.205017 118.048119,167.336304 118.043022,171.468338 
	C117.977707,224.367020 117.983879,277.265839 118.038460,330.164520 
	C118.041862,333.466614 118.598808,336.768097 118.947372,340.480530 
	C112.635712,340.892731 106.274910,340.894318 99.452026,340.809845 
z"/>
<path fill="#0F0F0F" opacity="1.000000" stroke="none" 
	d="
M77.539726,158.965317 
	C77.666855,166.016083 77.056458,172.971924 77.044746,179.928772 
	C76.961388,229.463516 76.980957,278.998474 77.040131,328.533264 
	C77.044472,332.165894 77.616325,335.797882 77.968414,339.870178 
	C71.977554,340.263031 65.942619,340.215820 59.453350,340.046082 
	C58.332623,334.363678 57.103733,328.805420 57.087547,323.243652 
	C56.938728,272.096680 56.983204,220.949066 57.038769,169.801727 
	C57.042358,166.494553 57.602638,163.187988 57.952911,159.466782 
	C64.361015,158.991898 70.720169,158.931381 77.539726,158.965317 
z"/>
<path fill="#626262" opacity="1.000000" stroke="none" 
	d="
M439.997314,346.612976 
	C433.638916,347.022095 427.278259,346.989746 420.405457,346.473877 
	C419.595520,342.682709 419.041229,339.375275 419.038177,336.067352 
	C418.983582,277.072662 418.995911,218.077957 418.993866,159.083252 
	C425.683746,159.040726 432.373627,158.998215 439.527740,159.019836 
	C439.661316,194.176132 439.282043,229.267914 439.021240,264.360596 
	C438.897552,281.002625 438.881348,297.647461 439.042816,314.288818 
	C439.145966,324.918457 439.663361,335.544098 439.997314,346.612976 
z"/>
<path fill="#5E5E5E" opacity="1.000000" stroke="none" 
	d="
M418.529724,159.017471 
	C418.995911,218.077957 418.983582,277.072662 419.038177,336.067352 
	C419.041229,339.375275 419.595520,342.682709 419.942413,346.393982 
	C412.885498,346.785828 405.779419,346.774078 398.290161,346.165405 
	C397.937988,287.701721 397.948029,229.834961 398.042603,171.968323 
	C398.049622,167.671326 398.663239,163.375336 398.994873,159.078873 
	C405.351776,159.036469 411.708649,158.994080 418.529724,159.017471 
z"/>
<path fill="#595959" opacity="1.000000" stroke="none" 
	d="
M398.530853,159.011139 
	C398.663239,163.375336 398.049622,167.671326 398.042603,171.968323 
	C397.948029,229.834961 397.937988,287.701721 397.882141,346.080444 
	C392.212738,346.500763 386.568176,346.409088 380.419434,345.785492 
	C379.610199,341.783234 379.042450,338.313110 379.039185,334.842499 
	C378.984222,276.252075 378.999542,217.661621 378.999298,159.071167 
	C385.355133,159.028580 391.710999,158.985992 398.530853,159.011139 
z"/>
<path fill="#555555" opacity="1.000000" stroke="none" 
	d="
M378.535217,159.001373 
	C378.999542,217.661621 378.984222,276.252075 379.039185,334.842499 
	C379.042450,338.313110 379.610199,341.783234 379.961792,345.680023 
	C373.977905,346.074890 367.947449,346.043274 361.455658,345.921875 
	C360.662903,341.694489 360.047363,337.557220 360.042816,333.419312 
	C359.979370,275.610474 359.999390,217.801498 360.000061,159.528824 
	C366.024384,159.020569 372.047791,158.976074 378.535217,159.001373 
z"/>
</svg>